<svg width="90" height="21" viewBox="0 0 90 21" fill="none" xmlns="http://www.w3.org/2000/svg">
<g clip-path="url(#clip0_107_594)">
<path d="M22.459 15.5927V1.73703H30.6483V3.47416H24.1548V7.73427H29.9866V9.4714H24.1548V13.8142H31.1033V15.5514H22.459V15.5927Z" fill="#E43225"/>
<path d="M39.7058 15.5927L36.8933 11.9116L34.0808 15.5927H32.0955L35.942 10.6708L31.8887 5.58353H34.1221L36.8933 9.38867L39.7058 5.58353H41.8979L38.0514 10.6708L41.6911 15.5927H39.7058Z" fill="#E43225"/>
<path d="M44.4214 14.1038V20.9282H42.7256V10.7122C42.7256 8.10653 44.7109 5.33539 47.8129 5.33539C50.9563 5.33539 53.3138 7.32068 53.3138 10.5881C53.3138 13.7729 50.9149 15.965 48.1851 15.965C46.8616 15.965 45.0831 15.3859 44.4214 14.1038ZM51.5353 10.5881C51.5353 8.35469 50.0877 7.03116 47.5234 7.15524C46.2826 7.1966 44.38 8.10653 44.5454 11.2913C44.5868 12.3253 45.6622 14.2692 48.0197 14.2692C50.0464 14.2692 51.5353 13.1111 51.5353 10.5881Z" fill="#E43225"/>
<path d="M54.7617 15.5927V5.58354H56.4575V6.6589C57.2847 5.70762 58.5669 5.37674 59.9318 5.37674V7.19659C59.725 7.15523 57.6983 6.90707 56.4575 9.55413V15.6341H54.7617V15.5927Z" fill="#E43225"/>
<path d="M60.3867 10.5881C60.3867 7.69292 62.4547 5.33539 65.3086 5.33539C68.8656 5.33539 70.1891 7.69292 70.1891 10.7122V11.5394H62.2479C62.372 13.442 64.0678 14.4347 65.6395 14.3933C66.7976 14.3519 67.5834 14.0211 68.4106 13.1938L69.5273 14.3519C68.4933 15.3446 67.1698 16.0063 65.5568 16.0063C62.5375 15.965 60.3867 13.7315 60.3867 10.5881ZM65.1845 7.03116C63.5715 7.03116 62.3307 8.43741 62.2479 9.96774H68.4106C68.4106 8.47877 67.3352 7.03116 65.1845 7.03116Z" fill="#E43225"/>
<path d="M71.0576 14.1865L72.2984 13.0697C72.2571 13.0697 72.9188 13.7315 73.0016 13.7729C73.2911 14.021 73.5806 14.1865 73.9528 14.2692C75.0282 14.5587 76.9721 14.476 77.1376 12.987C77.2203 12.1598 76.5999 11.7048 75.8968 11.4153C74.9869 11.0844 73.9942 10.9604 73.0843 10.5468C72.0503 10.0918 71.3885 9.30595 71.3885 8.14786C71.3885 5.12856 75.69 4.63224 77.6339 6.03849C77.7166 6.12121 78.6679 6.98977 78.6266 6.98977L77.3857 7.98242C76.7653 7.23793 76.1863 6.86569 74.8628 6.86569C74.201 6.86569 73.2911 7.15522 73.1256 7.85834C72.8775 8.85099 73.9942 9.22323 74.7387 9.43003C75.7313 9.67819 76.8067 9.84363 77.6753 10.3813C78.8747 11.1258 79.1642 12.7389 78.7093 13.9797C78.213 15.3446 76.724 15.8822 75.4005 15.9236C73.8288 16.0063 72.4639 15.51 71.3471 14.3933C71.2644 14.3933 71.0576 14.1865 71.0576 14.1865Z" fill="#E43225"/>
<path d="M79.7842 14.1865L81.025 13.0697C80.9836 13.0697 81.6454 13.7315 81.7281 13.7729C82.0176 14.021 82.3072 14.1865 82.6794 14.2692C83.7548 14.5587 85.6987 14.476 85.8641 12.987C85.9469 12.1598 85.3265 11.7048 84.6233 11.4153C83.7134 11.0844 82.7208 10.9604 81.8108 10.5468C80.7768 10.0918 80.1151 9.30595 80.1151 8.14786C80.1151 5.12856 84.4165 4.63224 86.3605 6.03849C86.4432 6.12121 87.3945 6.98977 87.3531 6.98977L86.1123 7.98242C85.4919 7.23793 84.9129 6.86569 83.5893 6.86569C82.9276 6.86569 82.0176 7.15522 81.8522 7.85834C81.604 8.85099 82.7208 9.22323 83.4652 9.43003C84.4579 9.67819 85.5333 9.84363 86.4018 10.3813C87.6013 11.1258 87.8908 12.7389 87.4358 13.9797C86.9395 15.3446 85.4505 15.8822 84.127 15.9236C82.5553 16.0063 81.1904 15.51 80.0737 14.3933C79.991 14.3933 79.7842 14.1865 79.7842 14.1865Z" fill="#E43225"/>
<path d="M87.8498 5.58353V4.50816H87.4775V4.30136H88.4702V4.50816H88.0979V5.58353H87.8498Z" fill="#E43225"/>
<path d="M89.7108 5.58353V4.59088L89.3385 5.58353H89.2558L88.8836 4.59088V5.58353H88.6768V4.30136H89.0076L89.3385 5.16993L89.6694 4.30136H90.0003V5.58353H89.7108Z" fill="#E43225"/>
<path d="M10.9605 15.5927L9.71967 12.2839H3.0193L1.77849 15.5927H0L5.37684 1.73703H7.32077L12.6563 15.5927H10.9605ZM6.28676 3.72233L3.76379 10.5881H9.01655L6.28676 3.72233Z" fill="#F7971D"/>
<path d="M13.7725 15.5927V1.73703H15.5096V15.5927H13.7725Z" fill="#F7971D"/>
<path d="M18.1162 15.5927V5.79031H19.8533V15.5927H18.1162Z" fill="#F7971D"/>
<path d="M21.5076 2.60557C21.5076 2.56421 21.5076 2.56421 21.5076 2.52285C21.5076 2.48149 21.5076 2.48149 21.5076 2.44013C20.1841 2.39877 19.1087 1.32341 19.0673 -0.00012207C19.026 -0.00012207 18.9846 -0.00012207 18.9432 -0.00012207C18.9019 -0.00012207 18.8605 -0.00012207 18.8192 -0.00012207C18.7778 1.32341 17.7024 2.39877 16.3789 2.44013C16.3789 2.48149 16.3789 2.48149 16.3789 2.52285C16.3789 2.56421 16.3789 2.56421 16.3789 2.60557C17.7024 2.64693 18.7778 3.7223 18.8192 5.04583C18.8605 5.04583 18.9019 5.04583 18.9432 5.04583C18.9846 5.04583 19.026 5.04583 19.0673 5.04583C19.1087 3.7223 20.1841 2.64693 21.5076 2.60557Z" fill="#F7971D"/>
</g>
<defs>
<clipPath id="clip0_107_594">
<rect width="90" height="20.9283" fill="white" transform="translate(0 -0.00012207)"/>
</clipPath>
</defs>
</svg>
