<svg width="93" height="93" viewBox="0 0 93 93" fill="none" xmlns="http://www.w3.org/2000/svg">
<g clip-path="url(#clip0_89_1150)">
<path fill-rule="evenodd" clip-rule="evenodd" d="M78.8683 4.64983C78.7405 43.1397 47.5238 66.2813 12.8011 75.4855C12.205 75.6447 11.8475 76.2575 12.0067 76.8536C12.1659 77.4497 12.7787 77.8071 13.3748 77.6479C49.0705 68.188 80.9741 44.2239 81.1048 4.65572C81.1081 4.0393 80.6087 3.53739 79.9895 3.5345C79.3731 3.53122 78.8712 4.03061 78.8683 4.64983Z" fill="black"/>
<path fill-rule="evenodd" clip-rule="evenodd" d="M13.7393 76.3944C15.146 75.0217 16.9305 73.3184 17.1273 73.1192C22.4624 67.721 26.674 61.7846 30.164 55.0272C30.4479 54.4791 30.2316 53.8027 29.6835 53.5188C29.1353 53.2349 28.4591 53.4512 28.1751 53.9993C24.793 60.5531 20.71 66.3115 15.5343 71.5472C15.2328 71.8526 11.219 75.679 10.4655 76.5137C10.1549 76.8547 10.085 77.1441 10.075 77.2139C10.0079 77.5828 10.1172 77.8495 10.241 78.0372C10.3823 78.248 10.7004 78.5391 11.2497 78.6318C11.825 78.7266 13.0603 78.6301 13.3741 78.631C18.1087 78.6568 23.3951 78.2731 28.3484 78.9122C33.0721 79.5214 37.4981 81.0627 40.751 84.9529C41.1465 85.4269 41.854 85.4885 42.3279 85.0929C42.8019 84.6973 42.8635 83.9899 42.468 83.5159C38.8303 79.1673 33.9147 77.3736 28.636 76.6925C23.7119 76.0578 18.4683 76.4011 13.7393 76.3944Z" fill="black"/>
</g>
<defs>
<clipPath id="clip0_89_1150">
<rect width="81" height="81" fill="white" transform="translate(0.68457 12.1279) rotate(-8.1217)"/>
</clipPath>
</defs>
</svg>
