<svg width="508" height="236" viewBox="0 0 508 236" fill="none" xmlns="http://www.w3.org/2000/svg">
<path fill-rule="evenodd" clip-rule="evenodd" d="M684.085 111.452C693.168 112.774 701.693 114.687 709.381 117.37C710.218 117.666 710.472 118.08 710.548 118.258C710.675 118.573 710.624 118.869 710.421 119.145C710.295 119.323 710.092 119.54 709.66 119.678C709.356 119.777 708.569 119.856 707.529 119.836C705.753 119.816 703.013 119.658 701.693 119.658C697.177 119.698 692.661 119.678 688.145 119.737C673.759 119.934 671.247 120.092 652.751 119.974C631.159 119.836 609.516 119.599 587.899 119.244C656.607 122.203 725.213 125.655 793.465 128.87C794.226 128.91 794.809 129.423 794.759 130.014C794.733 130.626 794.048 131.08 793.287 131.04C634.026 123.544 473.014 114.707 312.534 114.135C304.618 114.273 296.728 114.411 288.862 114.549C241.34 115.417 193.793 116.463 146.321 118.08C130.87 118.613 115.418 119.205 99.941 119.757C95.374 119.915 90.7816 120.072 86.1892 120.23C82.4849 120.349 72.9449 120.783 71.6002 120.802C70.3823 120.822 70.0779 119.974 70.0525 119.935C69.9764 119.658 70.0271 119.343 70.3315 119.047C70.4077 118.968 70.6108 118.751 71.0674 118.652C71.1436 118.652 71.4987 118.613 72.2345 118.554C110.394 116.127 148.656 114.451 186.993 113.385C181.842 113.425 176.692 113.445 171.541 113.484C131.834 113.721 92.0249 114.569 52.3428 113.484C43.3102 113.247 34.2523 112.971 25.2451 112.636C19.1812 112.419 3.57745 112.695 1.37012 112.182C0.355225 111.965 0.126831 111.413 0.101501 111.137C0.0761108 110.821 0.1521 110.466 0.608826 110.15C0.811768 109.993 1.44623 109.736 2.63867 109.539C41.585 102.97 87.1533 104.824 126.81 102.99C234.515 97.9597 341.84 101.313 449.519 104.371C542.458 107.014 635.396 107.152 728.284 110.742C762.282 112.044 797.347 110.545 830.863 115.516C831.624 115.634 832.107 116.186 831.98 116.778C831.828 117.37 831.092 117.765 830.331 117.646C796.966 112.695 762.029 114.214 728.157 112.912C713.466 112.34 698.776 111.867 684.085 111.452ZM396.745 112.912C453.655 112.222 510.565 111.866 567.525 112.083C606.598 112.222 663.534 106.442 702.353 117.489C702.074 117.489 701.846 117.489 701.643 117.489C697.127 117.528 692.61 117.488 688.094 117.567C673.733 117.765 671.222 117.922 652.776 117.804C605.609 117.488 558.315 116.699 511.174 115.476C472.988 114.49 434.854 113.602 396.745 112.912ZM11.7726 110.367C48.5877 105.357 90.3251 106.856 126.988 105.16C234.591 100.13 341.84 103.483 449.418 106.541C497.498 107.921 545.553 108.612 593.582 109.46C584.372 109.736 575.568 109.933 567.525 109.914C486.106 109.598 404.712 110.446 323.293 111.788C272.726 111.196 222.159 110.979 171.516 111.295C131.834 111.551 92.1011 112.38 52.4189 111.314C43.4118 111.078 34.3792 110.801 25.3721 110.466C22.3021 110.367 16.7456 110.387 11.7726 110.367Z" fill="white"/>
</svg>
