<svg width="46" height="50" viewBox="0 0 46 50" fill="none" xmlns="http://www.w3.org/2000/svg">
<path fill-rule="evenodd" clip-rule="evenodd" d="M15.391 46.6598C10.9986 45.437 6.4 44.8201 1.93904 44.2549C0.978214 44.1365 0.0861547 44.7976 0.0175245 45.7291C-0.119736 46.6612 0.566969 47.5137 1.45916 47.6321C5.78287 48.1762 10.2434 48.7583 14.4299 49.9356C15.3221 50.1909 16.2833 49.6653 16.5578 48.7611C16.8323 47.8575 16.2832 46.9159 15.391 46.6598Z" fill="#4B4B4B"/>
<path fill-rule="evenodd" clip-rule="evenodd" d="M28.7049 29.3223C21.636 22.1655 13.6749 15.9299 6.74326 8.5811C6.12558 7.89477 5.0275 7.858 4.3412 8.49871C3.6549 9.14011 3.58653 10.2186 4.27284 10.905C11.2045 18.2749 19.1656 24.5309 26.2345 31.7088C26.9208 32.3788 28.0186 32.3884 28.7049 31.7293C29.3226 31.0708 29.3912 29.9923 28.7049 29.3223Z" fill="#4B4B4B"/>
<path fill-rule="evenodd" clip-rule="evenodd" d="M41.9516 1.79466C42.1575 5.89088 42.363 9.98711 42.5689 14.084C42.5689 15.0223 43.3928 15.7467 44.3537 15.7011C45.3145 15.6548 46.0004 14.8561 46.0004 13.9172C45.7945 9.81416 45.589 5.71181 45.3831 1.60946C45.3145 0.671191 44.4908 -0.0485087 43.53 0.00255798C42.6378 0.0536246 41.883 0.857076 41.9516 1.79466Z" fill="#4B4B4B"/>
</svg>
