<svg width="46" height="51" viewBox="0 0 46 51" fill="none" xmlns="http://www.w3.org/2000/svg">
<path fill-rule="evenodd" clip-rule="evenodd" d="M15.391 47.4365C10.9986 46.2136 6.4 45.5967 1.93904 45.0316C0.978214 44.9131 0.0861547 45.5742 0.0175245 46.5057C-0.119736 47.4378 0.566969 48.2903 1.45916 48.4088C5.78287 48.9528 10.2434 49.5349 14.4299 50.7122C15.3221 50.9675 16.2833 50.4419 16.5578 49.5377C16.8323 48.6341 16.2832 47.6925 15.391 47.4365Z" fill="#4B4B4B"/>
<path fill-rule="evenodd" clip-rule="evenodd" d="M28.7049 30.0989C21.636 22.9421 13.6749 16.7065 6.74326 9.35771C6.12558 8.67138 5.0275 8.63461 4.3412 9.27532C3.6549 9.91672 3.58653 10.9952 4.27284 11.6816C11.2045 19.0515 19.1656 25.3075 26.2345 32.4855C26.9208 33.1554 28.0186 33.165 28.7049 32.5059C29.3226 31.8475 29.3912 30.7689 28.7049 30.0989Z" fill="#4B4B4B"/>
<path fill-rule="evenodd" clip-rule="evenodd" d="M41.9516 2.57127C42.1575 6.6675 42.363 10.7637 42.5689 14.8606C42.5689 15.7989 43.3928 16.5234 44.3537 16.4777C45.3145 16.4314 46.0004 15.6328 46.0004 14.6938C45.7945 10.5908 45.589 6.48842 45.3831 2.38607C45.3145 1.4478 44.4908 0.728103 43.53 0.779169C42.6378 0.830236 41.883 1.63369 41.9516 2.57127Z" fill="#4B4B4B"/>
</svg>
