<svg width="70" height="22" viewBox="0 0 70 22" fill="none" xmlns="http://www.w3.org/2000/svg">
<g clip-path="url(#clip0_107_587)">
<path d="M8.14854 16.3514C5.46887 16.6795 3.22668 14.4373 3.55481 11.8123C3.77356 10.0076 5.25012 8.53108 7.05479 8.31233C9.73448 7.9842 11.9767 10.2264 11.6485 12.8514C11.4298 14.6561 10.0079 16.1326 8.14854 16.3514ZM8.42198 4.75766C3.55481 4.26547 -0.437383 8.31233 0.0548045 13.1248C0.437617 16.6795 3.33606 19.578 6.89073 19.9061C11.7032 20.3983 15.7501 16.3514 15.2579 11.5389C14.8751 7.9842 11.9767 5.08579 8.42198 4.75766Z" fill="#0054FF"/>
<path d="M19.305 5.0311C18.2113 5.0311 17.3363 6.0155 17.555 7.16394C17.7191 7.98425 18.5394 8.58581 19.3597 8.58581H24.3363L16.6253 18.8124C16.3519 19.1405 16.6253 19.6327 17.0081 19.6327H29.1488C30.0238 19.6327 30.7894 19.0311 30.9534 18.2108C31.1722 17.0623 30.2972 16.078 29.2034 16.078H23.1331L30.8441 5.85144C31.1175 5.52331 30.8441 5.0311 30.4066 5.0311H19.305Z" fill="#0054FF"/>
<path d="M67.8125 4.97645C66.9922 5.14052 66.4453 5.90611 66.4453 6.78111V12.6874L56.7656 5.03114C56.4375 4.7577 55.9453 5.03114 55.9453 5.41395V17.6639C55.9453 18.4842 56.4922 19.2499 57.3672 19.4686C58.5156 19.6874 59.5547 18.8124 59.5547 17.7187V11.7577L69.2344 19.4139C69.5625 19.6874 70.0547 19.4139 70.0547 19.0311V6.72643C70 5.63268 68.9609 4.7577 67.8125 4.97645Z" fill="#0054FF"/>
<path d="M42.7109 4.64832C36.8047 4.64832 32.0469 8.09363 32.0469 12.3046C32.0469 16.5155 36.8594 19.9061 42.7656 19.9061C48.6719 19.9061 53.4297 16.4608 53.4297 12.2499C53.375 8.03894 48.6172 4.64832 42.7109 4.64832ZM42.7109 8.203C46.8125 8.203 49.8203 10.3358 49.8203 12.2499C49.8203 14.1639 46.7578 16.3514 42.7109 16.3514C38.6094 16.3514 35.6016 14.2186 35.6016 12.3046C35.6016 10.3358 38.6641 8.203 42.7109 8.203Z" fill="#0054FF"/>
<path d="M49.6563 13.0702C48.9453 14.7108 46.2109 16.2968 42.7109 16.2968C39.2109 16.2968 36.4766 14.7108 35.7656 13.0702H32.1016C32.6484 16.8983 37.2422 19.9061 42.7656 19.8514C48.2891 19.8514 52.7734 16.8436 53.375 13.0702H49.6563Z" fill="#0054FF"/>
</g>
<defs>
<clipPath id="clip0_107_587">
<rect width="70" height="21.875" fill="white" transform="translate(0 -0.00012207)"/>
</clipPath>
</defs>
</svg>
