<svg width="18" height="17" viewBox="0 0 18 17" fill="none" xmlns="http://www.w3.org/2000/svg">
<path d="M16.6681 12.8913H2.42325C2.10929 12.8913 1.85346 12.6518 1.85346 12.358C1.85346 12.0641 2.10929 11.8246 2.42325 11.8246H2.99304H4.70243H15.5285C15.7975 11.8246 16.0294 11.6486 16.0858 11.4028L17.7952 3.93611C17.8311 3.77877 17.7889 3.61397 17.6812 3.48917C17.5729 3.36384 17.41 3.29131 17.2379 3.29131H3.56284V1.69131C3.56284 0.809175 2.79589 0.0913086 1.85346 0.0913086H1.28366C0.969135 0.0913086 0.713867 0.330242 0.713867 0.624642C0.713867 0.919042 0.969135 1.15797 1.28366 1.15797H1.85346C2.16741 1.15797 2.42325 1.39744 2.42325 1.69131V3.82464V10.758C1.48081 10.758 0.713867 11.4758 0.713867 12.358C0.713867 13.2401 1.48081 13.958 2.42325 13.958H3.66768C3.60386 14.1254 3.56284 14.3036 3.56284 14.4913C3.56284 15.3734 4.32978 16.0913 5.27222 16.0913C6.21466 16.0913 6.9816 15.3734 6.9816 14.4913C6.9816 14.3036 6.94058 14.1254 6.87676 13.958H12.2152C12.1508 14.1254 12.1097 14.3036 12.1097 14.4913C12.1097 15.3734 12.8767 16.0913 13.8191 16.0913C14.7616 16.0913 15.5285 15.3734 15.5285 14.4913C15.5285 14.3036 15.4875 14.1254 15.4237 13.958H16.6681C16.9826 13.958 17.2379 13.719 17.2379 13.4246C17.2379 13.1302 16.9826 12.8913 16.6681 12.8913ZM3.56284 4.35797H16.5331L15.0675 10.758H4.70243H3.56284V4.35797ZM5.84201 14.4913C5.84201 14.7852 5.58618 15.0246 5.27222 15.0246C4.95826 15.0246 4.70243 14.7852 4.70243 14.4913C4.70243 14.1974 4.95826 13.958 5.27222 13.958C5.58618 13.958 5.84201 14.1974 5.84201 14.4913ZM14.3889 14.4913C14.3889 14.7852 14.1331 15.0246 13.8191 15.0246C13.5052 15.0246 13.2493 14.7852 13.2493 14.4913C13.2493 14.1974 13.5052 13.958 13.8191 13.958C14.1331 13.958 14.3889 14.1974 14.3889 14.4913Z" fill="#222222"/>
</svg>
