<svg width="372" height="355" viewBox="0 0 372 355" fill="none" xmlns="http://www.w3.org/2000/svg">
<path opacity="0.8" d="M369.667 177.751L369.524 176.255L369.098 174.784L368.391 173.36L367.41 172.007L366.161 170.749L364.654 169.608L362.9 168.605L360.914 167.759L358.709 167.09L356.304 166.615L353.716 166.351L350.965 166.31L348.073 166.505L345.06 166.946L341.949 167.643L338.765 168.6L335.53 169.823L332.27 171.313L329.009 173.069L325.77 175.09L322.578 177.371L319.455 179.905L316.426 182.683L313.511 185.694L310.731 188.926L308.106 192.365L305.655 195.993L303.393 199.794L301.336 203.747L299.498 207.833L297.889 212.03L296.519 216.316L295.396 220.666L294.524 225.058L293.907 229.466L293.546 233.867L293.439 238.237L293.583 242.55L293.973 246.784L294.6 250.915L295.456 254.92L296.528 258.779L297.804 262.471L299.267 265.978L300.9 269.28L302.686 272.364L304.605 275.214L306.636 277.818L308.756 280.166L310.944 282.25L313.175 284.062L315.427 285.599L317.674 286.859L319.892 287.843L322.058 288.551L324.148 288.99L326.138 289.165L328.006 289.085L329.73 288.762L331.29 288.207L332.666 287.435L333.841 286.462L334.798 285.306L335.522 283.985L336 282.521L336.222 280.935L336.177 279.249L335.86 277.486L335.264 275.669L334.388 273.824L333.231 271.973L331.794 270.141L330.081 268.352L328.098 266.629L325.853 264.996L323.357 263.473L320.62 262.083L317.657 260.846L314.484 259.778L311.118 258.899L307.577 258.223L303.881 257.765L300.052 257.535L296.111 257.545L292.083 257.801L287.99 258.311L283.857 259.077L279.707 260.102L275.565 261.384L271.457 262.921L267.404 264.708L263.431 266.738L259.561 269.001L255.815 271.488L252.213 274.184L248.776 277.074L245.522 280.144L242.466 283.373L239.623 286.744L237.008 290.235L234.63 293.824L232.498 297.49L230.621 301.208L229.003 304.954L227.646 308.706L226.552 312.437L225.718 316.124L225.141 319.743L224.816 323.271L224.733 326.684L224.883 329.96L225.255 333.078L225.834 336.018L226.605 338.761L227.551 341.291L228.653 343.592L229.891 345.649L231.245 347.452L232.692 348.99L234.209 350.255L235.774 351.242L237.361 351.946L238.947 352.366L240.509 352.503L242.021 352.359L243.461 351.941L244.805 351.254L246.031 350.307L247.118 349.113L248.045 347.685L248.793 346.036L249.345 344.183L249.684 342.145L249.796 339.941L249.67 337.591L249.293 335.118L248.657 332.543L247.756 329.891L246.586 327.185L245.143 324.448L243.428 321.706L241.443 318.982L239.192 316.301L236.681 313.685L233.919 311.158L230.917 308.742L227.686 306.457L224.241 304.324L220.598 302.36L216.774 300.583L212.789 299.008L208.663 297.648L204.417 296.515L200.073 295.619L195.655 294.968L191.186 294.567L186.692 294.419L182.195 294.526L177.72 294.887L173.293 295.499L168.936 296.356L164.672 297.452L160.525 298.776L156.516 300.318L152.666 302.064L148.993 303.999L145.515 306.107L142.249 308.369L139.21 310.766L136.409 313.276L133.858 315.879L131.565 318.552L129.537 321.27L127.779 324.011L126.292 326.75L125.079 329.463L124.135 332.126L123.457 334.714L123.04 337.205L122.874 339.576L122.949 341.805L123.253 343.87L123.772 345.754L124.49 347.436L125.39 348.901L126.452 350.134L127.658 351.12L128.984 351.849L130.41 352.311L131.913 352.499L133.468 352.406L135.052 352.031L136.641 351.373L138.211 350.431L139.737 349.21L141.197 347.715L142.567 345.954L143.825 343.936L144.95 341.673L145.922 339.179L146.722 336.468L147.333 333.558L147.738 330.467L147.925 327.215L147.88 323.823L147.594 320.312L147.057 316.706L146.265 313.028L145.212 309.302L143.897 305.552L142.32 301.803L140.484 298.079L138.393 294.403L136.054 290.8L133.475 287.292L130.668 283.901L127.645 280.648L124.421 277.552L121.012 274.631L117.435 271.903L113.711 269.383L109.859 267.083L105.901 265.015L101.86 263.189L97.7582 261.612L93.6203 260.289L89.4704 259.223L85.3327 258.415L81.2316 257.865L77.1913 257.569L73.2354 257.52L69.3871 257.712L65.6687 258.135L62.1016 258.778L58.706 259.625L55.5008 260.664L52.5035 261.876L49.7299 263.243L47.1941 264.745L44.9085 266.363L42.8833 268.072L41.127 269.852L39.6458 271.679L38.4438 273.529L37.5229 275.377L36.883 277.199L36.5215 278.973L36.4339 280.673L36.6135 282.276L37.0515 283.761L37.7372 285.106L38.6579 286.289L39.799 287.293L41.1445 288.098L42.6765 288.688L44.376 289.05L46.2226 289.169L48.1947 289.035L50.27 288.639L52.4253 287.974L54.637 287.035L56.881 285.819L59.1332 284.325L61.3693 282.556L63.5655 280.516L65.6983 278.21L67.7447 275.645L69.6828 272.834L71.4915 269.787L73.1508 266.518L74.642 263.043L75.9482 259.379L77.0537 255.545L77.9447 251.562L78.6094 247.449L79.0375 243.23L79.2213 238.928L79.1548 234.566L78.8341 230.168L78.2579 225.759L77.4265 221.363L76.3428 217.005L75.0118 212.708L73.4404 208.495L71.6377 204.39L69.615 200.414L67.385 196.587L64.9627 192.93L62.3644 189.46L59.6081 186.194L56.7133 183.147L53.7005 180.331L50.5915 177.758L47.4088 175.436L44.1757 173.374L40.9161 171.575L37.6541 170.042L34.4141 168.777L31.2202 167.778L28.0964 167.04L25.0663 166.558L22.1528 166.325L19.3779 166.329L16.7627 166.559L14.3271 167.001L12.0897 167.64L10.0675 168.459L8.27596 169.439L6.72882 170.559L5.43792 171.8L4.41313 173.139L3.66232 174.553L3.19124 176.019L3.00352 177.512L3.10058 179.01L3.48169 180.487L4.14392 181.921L5.08219 183.286L6.28931 184.56L7.75603 185.722L9.4711 186.748L11.4214 187.62L13.5921 188.319L15.9665 188.825L18.5266 189.125L21.2528 189.202L24.1245 189.045L27.1199 188.643L30.2164 187.988L33.3906 187.072L36.6185 185.892L39.8762 184.445L43.1392 182.731L46.3833 180.752L49.5846 178.512L52.7196 176.018L55.7654 173.279L58.7001 170.304L61.5027 167.106L64.1533 163.699L66.6336 160.1L68.9265 156.325L71.0167 152.395L72.8908 148.328L74.5369 144.147L75.9454 139.874L77.1085 135.533L78.0206 131.146L78.6783 126.739L79.0803 122.335L79.2275 117.959L79.1229 113.635L78.7718 109.387L78.1815 105.238L77.3614 101.211L76.3228 97.3273L75.079 93.6074L73.6449 90.0704L72.0371 86.7341L70.274 83.6146L68.3749 80.7265L66.3606 78.0824L64.2528 75.693L62.0743 73.567L59.8483 71.7111L57.5987 70.1298L55.3494 68.8255L53.1248 67.7982L50.949 67.0461L48.8456 66.565L46.8382 66.3485L44.9492 66.3882L43.2006 66.6737L41.6131 67.1928L40.2062 67.9313L38.9982 68.8734L38.0056 70.0015L37.2436 71.2969L36.7255 72.7394L36.4625 74.3076L36.4641 75.9795L36.7378 77.732L37.2887 79.5416L38.1199 81.3842L39.2325 83.2359L40.6251 85.0724L42.2944 86.8698L44.2347 88.6046L46.4384 90.2537L48.8957 91.7952L51.595 93.2076L54.5227 94.471L57.6636 95.5665L61.0005 96.4767L64.5151 97.186L68.1875 97.6801L71.9968 97.9469L75.9209 97.976L79.9369 97.7592L84.0212 97.2903L88.1499 96.5651L92.2986 95.5817L96.4429 94.3404L100.559 92.8437L104.622 91.096L108.609 89.1043L112.497 86.8771L116.264 84.4254L119.89 81.7619L123.354 78.901L126.639 75.859L129.728 72.6537L132.605 69.3043L135.258 65.8311L137.674 62.2559L139.845 58.6011L141.764 54.8899L143.423 51.1461L144.822 47.394L145.958 43.6578L146.833 39.9618L147.45 36.3301L147.816 32.7865L147.936 29.354L147.822 26.0548L147.485 22.9103L146.938 19.9406L146.196 17.1646L145.277 14.5996L144.199 12.2614L142.981 10.1642L141.644 8.32017L140.21 6.73952L138.703 5.43057L137.144 4.39948L135.559 3.6503L133.971 3.1849L132.404 3.00295L130.882 3.10197L129.429 3.47729L128.068 4.12214L126.822 5.02767L125.712 6.18303L124.758 7.57546L123.98 9.19043L123.396 11.0117L123.022 13.0214L122.872 15.2005L122.96 17.5283L123.297 19.9835L123.89 22.5434L124.749 25.185L125.876 27.8845L127.276 30.6178L128.947 33.3607L130.89 36.089L133.099 38.7786L135.569 41.4062L138.291 43.9487L141.256 46.384L144.451 48.6911L147.863 50.85L151.476 52.842L155.272 54.65L159.232 56.2584L163.338 57.6534L167.566 58.823L171.896 59.7572L176.304 60.4479L180.766 60.8892L185.258 61.0774L189.756 61.0109L194.236 60.6901L198.673 60.118L203.043 59.2992L207.322 58.241L211.489 56.9523L215.522 55.4443L219.399 53.7298L223.101 51.8237L226.611 49.7423L229.912 47.5036L232.988 45.1269L235.828 42.6329L238.42 40.0432L240.754 37.3803L242.825 34.6676L244.626 31.9287L246.156 29.1878L247.413 26.4691L248.399 23.7968L249.119 21.1949L249.577 18.6869L249.783 16.2954L249.745 14.0427L249.476 11.9496L248.991 10.0359L248.303 8.32029L247.431 6.8196L246.393 5.54926L245.209 4.5229L243.901 3.75227L242.489 3.24719L240.997 3.01544L239.449 3.0627L237.868 3.3925L236.278 4.00619L234.704 4.90296L233.169 6.07979L231.697 7.53152L230.311 9.25089L229.034 11.2286L227.886 13.4532L226.888 15.9117L226.06 18.5889L225.418 21.4684L224.979 24.5318L224.756 27.7597L224.763 31.1312L225.011 34.6246L225.507 38.2171L226.258 41.8853L227.269 45.6053L228.542 49.3529L230.077 53.1037L231.873 56.8335L233.924 60.5182L236.224 64.1343L238.765 67.6589L241.536 71.0701L244.526 74.3468L247.719 77.4691L251.1 80.4186L254.651 83.1784L258.353 85.733L262.186 88.0689L266.129 90.1743L270.159 92.0396L274.252 93.6569L278.386 95.0207L282.535 96.1275L286.677 96.9759L290.785 97.5669L294.837 97.9036L298.808 97.991L302.675 97.8366L306.415 97.4497L310.008 96.8416L313.432 96.0255L316.669 95.0165L319.7 93.8311L322.51 92.4874L325.085 91.005L327.411 89.4046L329.478 87.7079L331.278 85.9375L332.803 84.1167L334.05 82.2693L335.016 80.4193L335.7 78.591L336.106 76.8082L336.237 75.0949L336.099 73.4743L335.702 71.969L335.055 70.6008L334.17 69.3903L333.063 68.3571L331.749 67.5193L330.246 66.8935L328.572 66.4947L326.747 66.3361L324.793 66.429L322.733 66.7828L320.589 67.4048L318.384 68.3001L316.144 69.472L313.892 70.9211L311.651 72.6462L309.447 74.6439L307.303 76.9084L305.241 79.432L303.284 82.205L301.454 85.2156L299.769 88.4502L298.25 91.8935L296.913 95.5283L295.775 99.3362L294.849 103.297L294.147 107.391L293.681 111.594L293.458 115.885L293.484 120.239L293.764 124.633L294.3 129.041L295.091 133.441L296.134 137.807L297.426 142.116L298.96 146.343L300.727 150.467L302.715 154.465L304.913 158.317L307.306 162.002L309.877 165.503L312.61 168.802L315.484 171.886L318.479 174.739L321.574 177.352L324.747 179.714L327.973 181.818L331.23 183.659L334.494 185.234L337.739 186.542L340.942 187.583L344.078 188.362L347.125 188.884L350.058 189.157L352.857 189.19L355.499 188.995L357.964 188.586L360.234 187.977L362.292 187.186L364.121 186.23L365.708 185.131L367.041 183.907L368.108 182.583L368.903 181.179L369.419 179.72L369.652 178.229L369.6 176.73L369.264 175.248L368.647 173.807L367.752 172.429L366.587 171.138L365.161 169.958L363.485 168.908L361.571 168.01L359.434 167.283L357.091 166.745L354.559 166.411L351.858 166.298L349.008 166.416L346.031 166.778L342.949 167.393L339.786 168.267L336.565 169.405L333.31 170.809L330.046 172.481L326.798 174.418L323.588 176.617L320.441 179.071L317.379 181.772L314.425 184.71L311.6 187.874L308.924 191.248L306.416 194.818L304.092 198.566L301.969 202.473L300.059 206.519L298.376 210.683L296.929 214.943L295.727 219.275L294.774 223.656L294.076 228.062L293.633 232.468L293.445 236.85L293.51 241.184L293.823 245.445L294.375 249.612L295.16 253.659L296.164 257.567L297.376 261.315L298.781 264.882L300.362 268.251L302.102 271.406L303.981 274.332L305.978 277.016L308.073 279.447L310.241 281.615L312.461 283.514L314.709 285.14L316.96 286.488L319.19 287.559L321.375 288.355L323.492 288.879L325.516 289.137L327.425 289.138L329.198 288.89L330.812 288.408L332.249 287.703L333.49 286.792L334.518 285.693L335.317 284.423L335.875 283.002L336.18 281.452L336.221 279.796L335.991 278.054L335.484 276.252L334.698 274.413L333.63 272.561L332.282 270.721L330.656 268.916L328.759 267.169L326.596 265.505L324.179 263.945L321.517 262.511L318.625 261.222L315.517 260.099L312.21 259.158L308.722 258.416L305.074 257.886L301.285 257.583L297.377 257.515L293.374 257.692L289.299 258.121L285.176 258.805L281.029 259.747L276.882 260.947L272.76 262.404L268.687 264.112L264.687 266.065L260.781 268.256L256.993 270.672L253.344 273.303L249.852 276.133L246.538 279.148L243.417 282.328L240.505 285.656L237.815 289.111L235.361 292.672L233.15 296.315L231.191 300.019L229.49 303.759L228.05 307.512L226.872 311.252L225.955 314.956L225.297 318.599L224.892 322.159L224.733 325.61L224.811 328.932L225.114 332.103L225.628 335.102L226.34 337.91L227.232 340.509L228.286 342.885L229.483 345.021L230.803 346.906L232.222 348.529L233.72 349.882L235.272 350.958L236.854 351.752L238.444 352.263L240.016 352.49L241.546 352.435L243.012 352.103L244.389 351.501L245.655 350.636L246.788 349.52L247.768 348.164L248.575 346.584L249.191 344.794L249.6 342.813L249.786 340.66L249.737 338.354L249.441 335.918L248.888 333.373L248.072 330.743L246.988 328.051L245.632 325.322L244.004 322.579L242.104 319.846L239.937 317.149L237.508 314.51L234.825 311.952L231.898 309.499L228.739 307.17L225.361 304.986L221.779 302.966L218.011 301.128L214.075 299.487L209.991 298.057L205.781 296.851L201.466 295.878L197.069 295.148L192.614 294.667L188.125 294.438L183.626 294.464L179.142 294.745L174.697 295.277L170.314 296.057L166.019 297.077L161.832 298.33L157.777 299.804L153.874 301.487L150.142 303.363L146.601 305.418L143.266 307.633L140.153 309.989L137.274 312.466L134.643 315.042L132.267 317.694L130.154 320.401L128.309 323.137L126.736 325.879L125.436 328.603L124.406 331.284L123.645 333.899L123.145 336.424L122.9 338.835L122.9 341.111L123.132 343.231L123.585 345.175L124.241 346.923L125.085 348.459L126.098 349.767L127.26 350.833L128.55 351.645L129.947 352.193L131.427 352.469L132.968 352.466L134.546 352.182L136.136 351.613L137.714 350.761L139.257 349.629L140.74 348.221L142.141 346.543L143.437 344.606L144.607 342.42L145.63 339.998L146.487 337.354L147.16 334.506L147.632 331.47L147.89 328.267L147.92 324.917L147.712 321.442L147.256 317.863L146.545 314.206L145.576 310.492L144.345 306.748L142.851 302.996L141.097 299.261L139.086 295.567L136.825 291.939L134.322 288.398L131.586 284.967L128.631 281.668L125.469 278.52L122.117 275.542L118.592 272.751L114.912 270.162L111.099 267.791L107.172 265.648L103.155 263.744L99.0697 262.087L94.9408 260.682L90.7921 259.534L86.6479 258.645L82.5325 258.013L78.4702 257.636L74.4849 257.509L70.5998 257.626L66.8377 257.976L63.2202 258.55L59.7679 259.334L56.5 260.313L53.4347 261.472L50.5882 262.792L47.9752 264.253L45.6087 265.836L43.4996 267.519L41.6568 269.279L40.0875 271.094L38.7962 272.938L37.7857 274.79L37.0564 276.623L36.6066 278.415L36.4324 280.141L36.5278 281.777L36.8846 283.303L37.4927 284.694L38.34 285.931L39.4126 286.994L40.6948 287.864L42.1694 288.524L43.8177 288.96L45.6197 289.158L47.5542 289.106L49.5991 288.794L51.7315 288.215L53.9279 287.364L56.1642 286.236L58.4164 284.831L60.6602 283.15L62.8717 281.195L65.0272 278.973L67.1036 276.49L69.0786 273.756L70.9307 270.782L72.6396 267.582L74.1863 264.171L75.5532 260.565L76.7242 256.784L77.685 252.846L78.4229 248.772L78.9273 244.584L79.1897 240.306L79.2034 235.961L78.964 231.572L78.4692 227.163L77.7189 222.761L76.7151 218.388L75.4622 214.068L73.9665 209.826L72.2364 205.684L70.2824 201.665L68.1169 197.789L65.7542 194.076L63.21 190.544L60.5021 187.212L57.6492 184.093L54.6717 181.202L51.5909 178.55L48.4292 176.148L45.2096 174.002L41.9558 172.119L38.692 170.502L35.4423 169.151L32.231 168.068L29.0824 167.247L26.0199 166.685L23.0668 166.373L20.2454 166.302L17.5772 166.462L15.0823 166.838L12.7798 167.416L10.6873 168.18L8.82071 169.11L7.19436 170.188L5.82066 171.393L4.71016 172.703L3.87135 174.096L3.31068 175.548L3.03243 177.035L3.03876 178.534L3.3296 180.02L3.90274 181.47L4.75376 182.86L5.87615 184.166L7.2613 185.365L8.8986 186.437L10.7755 187.361L12.8777 188.116L15.1891 188.686L17.6921 189.053L20.3676 189.202L23.1953 189.121L26.1538 188.799L29.2205 188.225L32.3725 187.393L35.586 186.297L38.8368 184.935L42.1007 183.306L45.3535 181.411L48.571 179.254L51.7296 176.84L54.8063 174.177L57.7787 171.276L60.6255 168.148L63.3266 164.806L65.8631 161.266L68.2174 157.545L70.3738 153.662L72.3181 149.637L74.0379 145.49L75.5231 141.244L76.765 136.922L77.7576 132.547L78.4966 128.143L78.98 123.736L79.2081 119.348L79.1833 115.005L78.91 110.73L78.395 106.547L77.6469 102.479L76.6766 98.5476L75.4966 94.7733L74.1213 91.1761L72.567 87.774L70.8513 84.5838L68.9933 81.6206L67.0134 78.8975L64.933 76.4259L62.7745 74.2151L60.5611 72.2726L58.3164 70.6035L56.0644 69.2108L53.8293 68.0954L51.6353 67.2561L49.5063 66.6892L47.4658 66.3892L45.5367 66.3483L43.7411 66.5568L42.1001 67.003L40.6336 67.6732L39.3603 68.5522L38.2974 69.6231L37.4605 70.8673L36.8633 72.2652L36.5179 73.7958L36.4344 75.4371L36.6207 77.1665L37.0829 78.9604L37.8246 80.7952L38.8476 82.6466L40.1513 84.4905L41.7329 86.3029L43.5876 88.0602L45.7084 89.7391L48.0861 91.3172L50.7097 92.773L53.5663 94.0859L56.641 95.2369L59.9174 96.2079L63.3775 96.9828L67.0019 97.5468L70.7699 97.8872L74.6599 97.9931L78.6491 97.8554L82.7143 97.4673L86.8315 96.8241L90.9764 95.923L95.1248 94.7637L99.2522 93.3479L103.335 91.6796L107.348 89.7647L111.27 87.6115L115.079 85.23L118.752 82.6325L122.27 79.8328L125.614 76.8466L128.766 73.6913L131.713 70.3856L134.438 66.9496L136.931 63.4045L139.181 59.7725L141.18 56.0767L142.923 52.3407L144.405 48.5886L145.624 44.8446L146.582 41.1332L147.281 37.4785L147.726 33.9043L147.924 30.4339L147.883 27.0899L147.616 23.8939L147.134 20.8664L146.452 18.0267L145.588 15.3927L144.558 12.9807L143.382 10.8053L142.081 8.87942L140.676 7.21387L139.19 5.8176L137.645 4.69747L136.065 3.85819L134.475 3.30232L132.899 3.03025L131.36 3.04018L129.883 3.32812L128.49 3.88798L127.205 4.71155L126.049 5.78863L125.044 7.10705L124.208 8.65282L123.56 10.4102L123.117 12.362L122.895 14.4892L122.906 16.772L123.162 19.189L123.673 21.718L124.446 24.3362L125.488 27.0198L126.8 29.745L128.385 32.4875L130.242 35.223L132.367 37.9275L134.754 40.5774L137.397 43.1494L140.286 45.6212L143.409 47.9714L146.754 50.1796L150.304 52.2267L154.044 54.0951L157.954 55.7686L162.016 57.233L166.207 58.4756L170.507 59.4857L174.893 60.2547L179.34 60.776L183.826 61.0451L188.324 61.0597L192.813 60.8198L197.266 60.3272L201.659 59.5864L205.97 58.6036L210.176 57.3872L214.253 55.9477L218.182 54.2975L221.942 52.4507L225.515 50.4232L228.884 48.2326L232.033 45.8977L234.95 43.4388L237.622 40.8772L240.039 38.2351L242.194 35.5356L244.082 32.8025L245.698 30.0596L247.042 27.3312L248.114 24.6415L248.918 22.0147L249.459 19.4742L249.744 17.0432L249.783 14.7439L249.586 12.5977L249.168 10.6249L248.543 8.84423L247.728 7.27332L246.741 5.92804L245.601 4.82259L244.33 3.96935L242.948 3.37874L241.48 3.05921L239.947 3.01711L238.373 3.25665L236.784 3.7799L235.202 4.58672L233.652 5.6748L232.157 7.03966L230.742 8.6747L229.428 10.5712L228.236 12.7186L227.189 15.1041L226.304 17.7134L225.601 20.5303L225.096 23.5372L224.803 26.7149L224.735 30.043L224.905 33.5L225.321 37.0634L225.991 40.7101L226.919 44.4162L228.108 48.1577L229.56 51.9101L231.273 55.6492L233.243 59.3508L235.465 62.9913L237.93 66.5475L240.629 69.9972L243.551 73.3189L246.681 76.4925L250.004 79.4989L253.503 82.3209L257.159 84.9424L260.952 87.3493L264.863 89.5293L268.867 91.472L272.943 93.1691L277.066 94.6141L281.213 95.803L285.36 96.7337L289.481 97.4065L293.554 97.8237L297.553 97.9898L301.456 97.9115L305.239 97.5975L308.881 97.0585L312.361 96.3072L315.659 95.3579L318.758 94.2267L321.64 92.9314L324.291 91.491L326.698 89.9259L328.849 88.2574L330.734 86.508L332.348 84.7007L333.683 82.8592L334.739 81.0074L335.513 79.1695L336.007 77.3697L336.225 75.6317L336.172 73.9791L335.856 72.4346L335.287 71.0205L334.477 69.7575L333.439 68.6658L332.189 67.7639L330.744 67.0688L329.122 66.5962L327.343 66.3598L325.428 66.3715L323.399 66.6413L321.279 67.1772L319.092 67.985L316.86 69.0686L314.609 70.4295L312.362 72.0669L310.144 73.9783L307.978 76.1585L305.887 78.6006L303.895 81.2954L302.022 84.2317L300.289 87.3965L298.715 90.7751L297.318 94.3508L296.115 98.1057L295.12 102.02L294.346 106.074L293.803 110.245L293.502 114.51L293.448 118.847L293.647 123.23L294.101 127.637L294.811 132.042L295.775 136.422L296.988 140.751L298.446 145.007L300.139 149.166L302.058 153.207L304.191 157.107L306.523 160.847L309.04 164.409L311.723 167.774L314.554 170.928L317.513 173.856L320.579 176.547L323.729 178.989L326.941 181.176L330.191 183.102L333.455 184.761L336.709 186.154L339.928 187.28L343.088 188.142L346.166 188.746L349.138 189.097L351.981 189.205L354.675 189.081L357.199 188.738L359.534 188.191L361.661 187.456L363.564 186.551L365.23 185.495L366.644 184.309L367.797 183.014L368.68 181.633L369.285 180.189L369.609 178.706L369.648 177.207L369.402 175.717L368.874 174.26L368.067 172.859L366.987 171.539L365.643 170.321L364.045 169.227L362.205 168.278L360.138 167.495L357.859 166.895L355.385 166.494L352.736 166.309L349.931 166.353L346.992 166.636L343.941 167.169L340.801 167.96L337.595 169.013L334.349 170.333L331.085 171.92L327.829 173.772L324.605 175.888L321.435 178.262L318.344 180.885L315.353 183.749L312.485 186.842L309.759 190.151L307.196 193.66L304.811 197.354L302.622 201.212L300.643 205.216L298.887 209.345L297.364 213.577L296.083 217.888L295.05 222.256L294.271 226.657L293.746 231.066L293.478 235.458L293.462 239.81L293.697 244.097L294.174 248.296L294.885 252.384L295.821 256.339L296.968 260.14L298.314 263.766L299.841 267.201L301.532 270.426L303.369 273.426L305.33 276.188L307.396 278.7L309.544 280.953L311.75 282.939L313.991 284.652L316.244 286.089L318.483 287.248L320.685 288.131L322.826 288.741L324.883 289.083L326.831 289.165L328.649 288.995L330.316 288.586L331.812 287.951L333.117 287.104L334.214 286.062L335.088 284.844L335.725 283.47L336.111 281.959L336.237 280.333L336.094 278.617L335.676 276.831L334.979 275.002L334.001 273.151L332.742 271.304L331.204 269.485L329.392 267.718L327.313 266.025L324.976 264.429L322.391 262.953L319.57 261.616L316.529 260.438L313.284 259.437L309.852 258.63L306.252 258.031L302.505 257.654L298.633 257.51L294.658 257.609L290.604 257.957L286.493 258.559L282.351 259.419L278.202 260.537L274.069 261.912L269.978 263.541L265.952 265.417L262.014 267.533L258.186 269.879L254.49 272.443L250.946 275.211L247.573 278.169L244.389 281.298L241.409 284.581L238.647 287.998L236.116 291.527L233.827 295.147L231.787 298.834L230.004 302.565L228.48 306.316L227.219 310.063L226.219 313.782L225.479 317.447L224.994 321.036L224.758 324.524L224.761 327.89L224.993 331.111L225.442 334.166L226.093 337.037L226.929 339.705L227.934 342.153L229.088 344.367L230.371 346.334L231.761 348.041L233.236 349.481L234.773 350.646L236.348 351.53L237.938 352.131L239.518 352.448L241.065 352.483L242.553 352.239L243.961 351.722L245.265 350.94L246.443 349.902L247.474 348.621L248.338 347.111L249.017 345.386L249.493 343.464L249.752 341.363L249.779 339.104L249.562 336.707L249.092 334.194L248.361 331.589L247.363 328.914L246.093 326.194L244.552 323.452L242.738 320.714L240.656 318.003L238.31 315.343L235.707 312.757L232.857 310.268L229.77 307.897L226.459 305.665L222.941 303.591L219.23 301.693L215.346 299.987L211.307 298.488L207.135 297.21L202.85 296.162L198.477 295.354L194.038 294.793L189.557 294.484L185.058 294.428L180.567 294.628L176.107 295.08L171.702 295.782L167.376 296.727L163.153 297.907L159.053 299.311L155.099 300.929L151.311 302.745L147.707 304.745L144.305 306.911L141.119 309.224L138.165 311.665L135.454 314.212L132.995 316.842L130.798 319.534L128.867 322.264L127.208 325.007L125.82 327.739L124.705 330.436L123.859 333.075L123.276 335.631L122.951 338.081L122.874 340.402L123.034 342.574L123.418 344.576L124.011 346.389L124.797 347.994L125.758 349.376L126.875 350.521L128.126 351.415L129.492 352.048L130.948 352.411L132.472 352.498L134.041 352.303L135.63 351.825L137.214 351.063L138.771 350.02L140.276 348.699L141.705 347.106L143.037 345.251L144.25 343.142L145.321 340.794L146.233 338.219L146.966 335.434L147.504 332.456L147.832 329.305L147.936 325.999L147.805 322.561L147.428 319.013L146.8 315.378L145.913 311.68L144.765 307.942L143.355 304.19L141.684 300.447L139.754 296.738L137.572 293.086L135.145 289.515L132.482 286.047L129.595 282.703L126.498 279.505L123.204 276.471L119.732 273.618L116.1 270.964L112.327 268.522L108.434 266.305L104.443 264.324L100.377 262.587L96.2593 261.102L92.1143 259.872L87.966 258.9L83.8387 258.186L79.7569 257.729L75.7445 257.523L71.8251 257.563L68.0214 257.84L64.3555 258.344L60.8484 259.062L57.5198 259.981L54.3881 261.084L51.4702 262.355L48.7814 263.773L46.335 265.32L44.1429 266.974L42.2144 268.712L40.5574 270.511L39.1771 272.349L38.077 274.201L37.2583 276.042L36.7198 277.85L36.4583 279.599L36.4686 281.267L36.7431 282.83L37.2724 284.267L38.0449 285.555L39.0474 286.675L40.2646 287.609L41.6799 288.338L43.275 288.847L45.0303 289.122L46.925 289.15L48.9372 288.922L51.0442 288.429L53.2228 287.665L55.449 286.625L57.6987 285.309L59.9479 283.715L62.1723 281.847L64.3481 279.709L66.4522 277.308L68.4618 274.653L70.3553 271.754L72.112 268.625L73.7124 265.279L75.1384 261.734L76.3734 258.006L77.4026 254.116L78.2127 250.083L78.7926 245.929L79.1328 241.677L79.2263 237.351L79.0679 232.973L78.6546 228.568L77.9855 224.161L77.0621 219.776L75.888 215.437L74.4688 211.168L72.8123 206.991L70.9284 202.931L68.8288 199.007L66.5273 195.239L64.0391 191.648L61.3813 188.251L58.5725 185.062L55.6324 182.097L52.5821 179.368L49.4437 176.886L46.24 174.657L42.9945 172.69L39.7312 170.988L36.4744 169.552L33.2483 168.384L30.0771 167.48L26.9846 166.836L23.9942 166.445L21.1285 166.299L18.4092 166.387L15.857 166.696L13.4912 167.211L11.33 167.918L9.38985 168.797L7.68553 169.83L6.23012 170.997L5.03476 172.276L4.10861 173.645L3.45878 175.08L3.09023 176.559L3.00582 178.057L3.20617 179.55L3.68976 181.014L4.45288 182.425L5.48966 183.76L6.79217 184.996L8.35043 186.111L10.1525 187.084L12.1846 187.895L14.4312 188.525L16.8752 188.959L19.4979 189.179L22.2794 189.173L25.1986 188.928L28.2333 188.435L31.3607 187.686L34.5572 186.675L37.7987 185.398L41.0611 183.854L44.3201 182.043L47.5514 179.969L50.7313 177.636L53.8365 175.052L56.8445 172.225L59.7336 169.168L62.4832 165.892L65.0741 162.414L67.4882 158.749L69.7093 154.916L71.7226 150.933L73.5151 146.823L75.076 142.606L76.3962 138.305L77.4688 133.945L78.2889 129.548L78.8538 125.139L79.1631 120.742L79.2184 116.382L79.0237 112.083L78.5848 107.868L77.9099 103.761L77.0091 99.7838L75.8944 95.9572L74.5796 92.3016L73.0805 88.8354L71.4142 85.5761L69.5994 82.539L67.656 79.7381L65.6052 77.1852L63.4691 74.8905L61.2707 72.8619L59.0333 71.1053L56.781 69.6243L54.5379 68.4207L52.3282 67.4936L50.176 66.8405L48.1048 66.4562L46.1377 66.3337L44.2973 66.464L42.6048 66.8359L41.0806 67.4363L39.7439 68.2506L38.6122 69.2623L37.7017 70.4534L37.0267 71.8045L36.6 73.2951L36.4321 74.9036L36.5317 76.6075L36.9054 78.3834L37.5578 80.2078L38.4912 82.0565L39.7057 83.9054L41.1992 85.7305L42.9676 87.5079L45.0045 89.2142L47.3015 90.8268L49.8481 92.3238L52.632 93.6844L55.6389 94.889L58.8529 95.9191L62.2565 96.7582L65.8308 97.3909L69.5554 97.8038L73.4089 97.9854L77.3691 97.9261L81.4126 97.6184L85.5158 97.0569L89.6546 96.2381L93.8045 95.1609L97.9413 93.8265L102.041 92.2381L106.079 90.401L110.032 88.3226L113.879 86.0126L117.598 83.4825L121.167 80.7456L124.568 77.817L127.784 74.7136L130.797 71.4537L133.595 68.0569L136.163 64.5442L138.491 60.9374L140.571 57.2594L142.396 53.5336L143.961 49.784L145.264 46.0348L146.306 42.3104L147.087 38.635L147.612 35.0326L147.887 31.5267L147.921 28.14L147.725 24.8946L147.31 21.8112L146.69 18.9097L145.882 16.2084L144.903 13.724L143.772 11.4718L142.508 9.46511L141.134 7.71556L139.67 6.23268L138.142 5.02397L136.571 4.09484L134.981 3.44855L133.398 3.08618L131.845 3.00661L130.345 3.20656L128.923 3.68059L127.601 4.42118L126.402 5.41874L125.346 6.66171L124.454 8.13669L123.745 9.82849L123.235 11.7203L122.941 13.7938L122.876 16.0292L123.053 18.4058L123.482 20.9017L124.171 23.494L125.127 26.1593L126.353 28.8739L127.851 31.6135L129.621 34.3539L131.661 37.0709L133.965 39.7407L136.528 42.3399L139.34 44.8461L142.39 47.2373L145.665 49.4928L149.152 51.5932L152.833 53.5203L156.691 55.2576L160.707 56.7901L164.859 58.1045L169.127 59.1897L173.488 60.0363L177.918 60.6371L182.394 60.9869L186.891 61.0827L191.386 60.9237L195.852 60.5113L200.268 59.849L204.608 58.9424L208.849 57.7994L212.97 56.4297L216.948 54.8452L220.764 53.0594L224.398 51.0876L227.834 48.947L231.055 46.6559L234.047 44.2342L236.798 41.7029L239.297 39.084L241.536 36.4003L243.51 33.6753L245.213 30.9328L246.643 28.1972L247.802 25.4926L248.691 22.8431L249.315 20.2726L249.681 17.8043L249.796 15.4607L249.674 13.2635L249.324 11.2333L248.764 9.38945L248.007 7.74993L247.073 6.33116L245.979 5.14789L244.748 4.21308L243.399 3.5378L241.955 3.13114L240.44 3.00011L238.877 3.14962L237.29 3.58241L235.703 4.29905L234.141 5.29792L232.626 6.57524L231.183 8.12505L229.834 9.93935L228.601 12.0081L227.506 14.3192L226.567 16.8589L225.804 19.6116L225.234 22.5599L224.872 25.6854L224.732 28.9679L224.825 32.3862L225.161 35.9182L225.75 39.5409L226.595 43.2307L227.701 46.9636L229.069 50.7151L230.699 54.4611L232.588 58.1772L234.73 61.8397L237.119 65.4253L239.745 68.9112L242.597 72.276L245.662 75.4988L248.925 78.5605L252.37 81.443L255.978 84.13L259.73 86.6067L263.606 88.8602L267.583 90.8795L271.638 92.6556L275.749 94.1814L279.891 95.4522L284.041 96.4653L288.173 97.2201L292.263 97.7183L296.289 97.9638L300.224 97.9625L304.048 97.7225L307.737 97.2539L311.271 96.5687L314.629 95.6808L317.794 94.6057L320.747 93.3607L323.473 91.9643L325.959 90.4367L328.192 88.7988L330.163 87.0727L331.864 85.2813L333.288 83.4481L334.433 81.5969L335.297 79.752L335.88 77.9374L336.185 76.1771L336.217 74.4948L335.984 72.9135L335.495 71.4555L334.76 70.1422L333.794 68.9938L332.609 68.0295L331.225 67.2668L329.657 66.7218L327.926 66.4087L326.052 66.3402L324.057 66.5268L321.963 66.9772L319.794 67.6979L317.574 68.6934L315.327 69.9659L313.076 71.5154L310.846 73.34L308.661 75.4353L306.544 77.7948L304.518 80.4102L302.604 83.2709L300.824 86.3645L299.198 89.6767L297.743 93.1915L296.476 96.8914L295.413 100.757L294.568 104.769L293.95 108.905L293.571 113.142L293.438 117.459L293.556 121.83L293.929 126.232L294.557 130.641L295.44 135.031L296.575 139.379L297.956 143.661L299.575 147.853L301.423 151.934L303.489 155.881L305.76 159.675L308.219 163.295L310.851 166.725L313.637 169.947L316.558 172.949L319.592 175.716L322.718 178.239L325.913 180.508L329.153 182.517L332.415 184.262L335.675 185.74L338.907 186.95L342.089 187.896L345.196 188.581L348.204 189.012L351.091 189.196L353.835 189.145L356.415 188.87L358.812 188.387L361.007 187.71L362.983 186.857L364.726 185.847L366.222 184.7L367.459 183.437L368.429 182.081L369.123 180.655L369.537 179.181L369.666 177.685L369.511 176.189L369.073 174.719L368.354 173.298L367.36 171.949L366.099 170.696L364.581 169.56L362.817 168.564L360.82 167.725L358.607 167.065L356.193 166.599L353.597 166.344L350.84 166.313L347.941 166.519L344.923 166.972L341.809 167.68L338.622 168.649L335.386 169.884L332.125 171.385L328.864 173.153L325.627 175.186L322.437 177.478L319.319 180.023L316.294 182.811L313.384 185.833L310.611 189.075L307.994 192.522L305.55 196.158L303.297 199.966L301.25 203.926L299.422 208.018L297.823 212.219L296.464 216.508L295.352 220.86L294.491 225.253L293.886 229.662L293.536 234.062L293.44 238.43L293.595 242.74L293.996 246.97L294.634 251.096L295.499 255.095L296.581 258.947L297.865 262.631L299.336 266.129L300.976 269.422L302.769 272.496L304.693 275.335L306.728 277.928L308.852 280.264L311.042 282.336L313.275 284.136L315.527 285.661L317.773 286.909L319.99 287.88L322.153 288.576L324.238 289.003L326.223 289.167L328.085 289.076L329.803 288.742L331.355 288.177L332.723 287.395L333.888 286.414L334.835 285.25L335.549 283.923L336.016 282.453L336.225 280.862L336.169 279.172L335.839 277.406L335.231 275.588L334.343 273.741L333.173 271.891L331.724 270.06L329.999 268.274L328.004 266.555L325.748 264.926L323.24 263.409L320.493 262.025L317.521 260.794L314.339 259.735L310.964 258.865L307.416 258.198L303.713 257.75L299.879 257.53L295.934 257.551L291.902 257.818L287.807 258.339L283.672 259.117L279.523 260.153L275.382 261.447L271.275 262.995L267.226 264.793L263.257 266.833L259.392 269.107L255.652 271.603L252.057 274.308L248.628 277.207L245.382 280.284L242.335 283.52L239.502 286.897L236.897 290.392L234.53 293.986L232.41 297.654L230.544 301.373L228.937 305.121L227.592 308.872L226.509 312.602L225.687 316.287L225.122 319.902L224.807 323.425L224.735 326.832L224.895 330.102L225.277 333.212L225.865 336.144L226.644 338.878L227.597 341.398L228.705 343.688L229.949 345.735L231.308 347.526L232.758 349.052L234.278 350.305L235.844 351.279L237.432 351.97L239.018 352.378L240.577 352.502L242.087 352.347L243.523 351.916L244.862 351.217L246.082 350.26L247.162 349.055L248.082 347.616L248.822 345.958L249.364 344.096L249.694 342.051L249.796 339.84L249.658 337.484L249.27 335.006L248.623 332.427L247.71 329.772L246.527 327.063L245.072 324.326L243.345 321.584L241.348 318.862L239.085 316.183L236.564 313.571L233.791 311.049L230.778 308.638L227.537 306.359L224.083 304.233L220.432 302.277L216.601 300.508L212.609 298.943L208.477 297.592L204.226 296.47L199.878 295.585L195.457 294.945L190.987 294.555L186.492 294.418L181.995 294.537L177.523 294.909L173.098 295.532L168.744 296.4L164.486 297.506L160.344 298.84L156.342 300.391L152.499 302.146L148.834 304.089L145.366 306.204L142.11 308.473L139.08 310.875L136.29 313.39L133.75 315.997L131.469 318.672L129.453 321.392L127.707 324.133L126.233 326.871L125.031 329.582L124.099 332.242L123.433 334.827L123.027 337.313L122.872 339.678L122.958 341.9L123.272 343.958L123.8 345.833L124.526 347.506L125.434 348.961L126.503 350.183L127.714 351.158L129.046 351.875L130.476 352.325L131.981 352.5L133.538 352.396L135.123 352.008L136.711 351.337L138.28 350.383L139.803 349.149L141.26 347.642L142.625 345.87L143.878 343.841L144.996 341.567L145.961 339.063L146.753 336.343L147.355 333.425L147.751 330.326L147.928 327.067L147.873 323.669L147.575 320.154L147.028 316.544L146.224 312.863L145.159 309.136L143.833 305.385L142.244 301.637L140.397 297.914L138.294 294.242L135.944 290.642L133.355 287.139L130.538 283.754L127.506 280.507L124.273 277.418L120.856 274.506L117.273 271.787L113.542 269.276L109.685 266.986L105.723 264.929L101.679 263.113L97.575 261.547L93.4361 260.236L89.2862 259.182L85.1496 258.386L81.0507 257.847L77.0136 257.561L73.062 257.524L69.2191 257.726L65.507 258.159L61.9471 258.811L58.5595 259.668L55.3632 260.714L52.3755 261.933L49.6121 263.307L47.0872 264.815L44.8129 266.437L42.7996 268.15L41.0554 269.933L39.5865 271.761L38.3969 273.611L37.4885 275.458L36.861 277.279L36.5118 279.05L36.4363 280.746L36.6276 282.345L37.0768 283.824L37.7732 285.162L38.704 286.338L39.8546 287.333L41.2087 288.129L42.7486 288.709L44.4551 289.06L46.3077 289.168L48.2848 289.023L50.3642 288.615L52.5225 287.938L54.7362 286.986L56.981 285.758L59.233 284.253L61.4679 282.472L63.6617 280.419L65.7911 278.101L67.8333 275.526L69.766 272.703L71.5685 269.646L73.2207 266.368L74.7041 262.884L76.0017 259.212L77.0979 255.371L77.9791 251.382L78.6335 247.264L79.0509 243.041L79.2237 238.736L79.1459 234.371L78.814 229.973L78.2263 225.564L77.3837 221.169L76.2889 216.813L74.947 212.519L73.3652 208.31L71.5525 204.21L69.5202 200.24L67.2814 196.421L64.8509 192.772L62.2452 189.311L59.4824 186.054L56.5819 183.017L53.5644 180.211L50.4516 177.649L47.2661 175.339L44.0314 173.288L40.7711 171.501L37.5096 169.981L34.2711 168.727L31.0798 167.74L27.9597 167.013L24.9343 166.543L22.0265 166.32L19.2582 166.334L16.6506 166.574L14.2234 167.026L11.9952 167.673L9.98292 168.499L8.20198 169.485L6.66598 170.612L5.3867 171.858L4.37393 173.2L3.63543 174.617L3.17688 176.085L3.00179 177.579L3.1115 179.076L3.50517 180.552L4.17977 181.983L5.13015 183.344L6.34901 184.614L7.82701 185.77L9.55282 186.791L11.5133 187.655L13.6933 188.345L16.0764 188.843L18.6443 189.133L21.3774 189.2L24.2551 189.033L27.2555 188.62L30.3559 187.953L33.5329 187.026L36.7628 185.834L40.0212 184.375L43.2838 182.649L46.5266 180.658L49.7254 178.407L52.8569 175.902L55.8983 173.151L58.8275 170.166L61.6237 166.959L64.2672 163.543L66.7395 159.936L69.0237 156.154L71.1046 152.217L72.9688 148.145L74.6046 143.959L76.0023 139.683L77.1544 135.339L78.0553 130.951L78.7016 126.543L79.0923 122.14L79.2282 117.765L79.1125 113.444L78.7506 109.2L78.1499 105.056L77.3198 101.035L76.2718 97.1585L75.0192 93.4463L73.577 89.9178L71.962 86.5909L70.1924 83.4814L68.2877 80.6038L66.2688 77.9708L64.1574 75.5929L61.9763 73.4788L59.7488 71.635L57.4986 70.066L55.25 68.774L53.027 67.759L50.8539 67.0191L48.7543 66.5498L46.7516 66.3449L44.8685 66.3957L43.1266 66.6919L41.5467 67.2211L40.1482 67.969L38.9494 68.9197L37.9668 70.0556L37.2154 71.358L36.7083 72.8065L36.4569 74.3798L36.4705 76.0558L36.7563 77.8113L37.3196 79.6229L38.1634 81.4665L39.2884 83.3179L40.6934 85.1532L42.3748 86.9483L44.327 88.6798L46.5422 90.3246L49.0105 91.8608L51.7203 93.267L54.6578 94.5234L57.8077 95.611L61.1529 96.5126L64.675 97.2126L68.354 97.6968L72.1688 97.9533L76.0975 97.9717L80.117 97.7438L84.2038 97.2635L88.3339 96.5269L92.4829 95.532L96.6265 94.2794L100.74 92.7713L104.801 91.0127L108.784 89.0103L112.667 86.7729L116.428 84.3116L120.047 81.6389L123.504 78.7697L126.781 75.72L129.86 72.5079L132.728 69.1525L135.37 65.6744L137.776 62.0951L139.936 58.4373L141.843 54.7242L143.491 50.9795L144.878 47.2275L146.002 43.4926L146.866 39.799L147.472 36.1707L147.826 32.6316L147.936 29.2045L147.812 25.9117L147.465 22.7746L146.909 19.8131L146.159 17.046L145.232 14.4908L144.147 12.1631L142.924 10.0769L141.582 8.24431L140.145 6.67558L138.634 5.37885L137.074 4.36021L135.488 3.62361L133.9 3.17081L132.335 3.00141L130.816 3.11281L129.366 3.50027L128.01 4.1569L126.77 5.07376L125.666 6.23993L124.72 7.64258L123.95 9.26706L123.375 11.0971L123.01 13.1147L122.871 15.3008L122.97 17.6348L123.317 20.0951L123.923 22.6592L124.793 25.3039L125.933 28.0054L127.344 30.7396L129.028 33.4824L130.982 36.2094L133.203 38.8968L135.684 41.521L138.418 44.0592L141.393 46.4893L144.598 48.7903L148.019 50.9421L151.64 52.9263L155.444 54.7258L159.412 56.325L163.523 57.7102L167.757 58.8695L172.09 59.793L176.501 60.4728L180.965 60.903L185.458 61.0799L189.956 61.002L194.434 60.67L198.868 60.0868L203.235 59.2573L207.51 58.1886L211.671 56.8899L215.697 55.3724L219.567 53.6491L223.261 51.7348L226.762 49.6461L230.053 47.4008L233.119 45.0185L235.948 42.5198L238.529 39.9264L240.852 37.2608L242.91 34.5463L244.7 31.8068L246.217 29.0664L247.462 26.3493L248.437 23.6796L249.145 21.0814L249.592 18.578L249.786 16.1923L249.738 13.9462L249.459 11.8606L248.964 9.95542L248.268 8.24897L247.388 6.7582L246.344 5.49841L245.154 4.48317L243.84 3.72414L242.424 3.23105L240.929 3.01159L239.379 3.07133L237.797 3.41373L236.207 4.04002L234.634 4.94931L233.102 6.13847L231.633 7.60226L230.252 9.33331L228.98 11.3222L227.838 13.5575L226.848 16.026L226.027 18.7127L225.394 21.6007L224.964 24.6718L224.751 27.9065L224.769 31.2839L225.027 34.7822L225.535 38.3786L226.297 42.0496L227.32 45.7714L228.605 49.5196L230.152 53.27L231.958 56.9982L234.02 60.6804L236.332 64.2929L238.883 67.813L241.665 71.2186L244.663 74.4889L247.865 77.6039L251.254 80.5453L254.812 83.2963L258.521 85.8415L262.359 88.1674L266.306 90.2623L270.339 92.1167L274.435 93.7229L278.57 95.0753L282.72 96.1706L286.86 97.0076L290.966 97.5872L295.015 97.9127L298.982 97.9892L302.844 97.8243L306.578 97.4273L310.163 96.8097L313.58 95.9847L316.808 94.9675L319.83 93.7746L322.63 92.4244L325.194 90.9363L327.509 89.3311L329.564 87.6307L331.352 85.8576L332.865 84.0351L334.099 82.187L335.052 80.3375L335.724 78.5106L336.117 76.7305L336.236 75.0208L336.087 73.4049L335.678 71.9052L335.02 70.5435L334.126 69.3405L333.009 68.3156L331.686 67.4869L330.175 66.8708L328.494 66.4824L326.663 66.3348L324.704 66.4391L322.639 66.8047L320.492 67.4387L318.286 68.3463L316.044 69.5304L313.792 70.9919L311.552 72.7292L309.35 74.7388L307.209 77.015L305.152 79.55L303.2 82.3338L301.375 85.3546L299.698 88.5989L298.187 92.051L296.858 95.6939L295.729 99.509L294.813 103.477L294.122 107.575L293.666 111.783L293.454 116.077L293.491 120.433L293.783 124.828L294.329 129.237L295.132 133.636L296.187 138L297.489 142.305L299.034 146.529L300.81 150.648L302.808 154.64L305.015 158.484L307.416 162.162L309.995 165.654L312.734 168.944L315.614 172.017L318.615 174.861L321.714 177.462L324.889 179.813L328.118 181.906L331.375 183.735L334.638 185.298L337.882 186.594L341.083 187.623L344.216 188.391L347.258 188.902L350.186 189.164L352.978 189.186L355.612 188.981L358.069 188.563L360.33 187.945L362.378 187.146L364.197 186.184L365.773 185.079L367.094 183.851L368.149 182.522L368.932 181.115L369.435 179.654L369.656 178.162L369.591 176.664L369.243 175.183L368.613 173.744L367.706 172.37L366.529 171.084L365.092 169.908L363.405 168.865L361.481 167.974L359.334 167.255L356.982 166.725L354.443 166.401L351.735 166.298L348.879 166.427L345.896 166.8L342.81 167.426L339.644 168.312L336.421 169.461L333.165 170.878L329.902 172.561L326.654 174.51L323.447 176.72L320.303 179.185L317.246 181.897L314.297 184.846L311.478 188.019L308.809 191.402L306.309 194.98L303.993 198.736L301.879 202.649L299.98 206.701L298.307 210.87L296.87 215.134L295.679 219.468L294.738 223.851L294.051 228.258L293.619 232.663L293.443 237.044L293.519 241.375L293.842 245.633L294.405 249.794L295.2 253.836L296.214 257.737L297.435 261.477L298.848 265.036L300.436 268.396L302.183 271.541L304.067 274.457L306.069 277.129L308.168 279.549L310.339 281.705L312.561 283.592L314.809 285.205L317.059 286.542L319.288 287.601L321.471 288.384L323.584 288.896L325.603 289.143L327.507 289.132L329.273 288.874L330.88 288.381L332.308 287.667L333.54 286.747L334.558 285.64L335.347 284.363L335.894 282.936L336.187 281.381L336.216 279.72L335.974 277.975L335.455 276.171L334.656 274.331L333.576 272.479L332.215 270.64L330.578 268.837L328.668 267.094L326.494 265.433L324.066 263.878L321.393 262.45L318.491 261.169L315.374 260.053L312.059 259.121L308.563 258.388L304.908 257.868L301.113 257.575L297.201 257.518L293.195 257.706L289.117 258.146L284.992 258.841L280.845 259.795L276.699 261.007L272.578 262.474L268.508 264.193L264.511 266.158L260.61 268.358L256.828 270.785L253.185 273.425L249.701 276.264L246.395 279.286L243.283 282.473L240.38 285.807L237.701 289.267L235.257 292.832L233.058 296.479L231.11 300.184L229.421 303.926L227.992 307.678L226.826 311.417L225.921 315.119L225.274 318.759L224.88 322.314L224.732 325.761L224.82 329.076L225.132 332.24L225.656 335.231L226.376 338.03L227.275 340.62L228.337 342.985L229.54 345.11L230.864 346.984L232.287 348.595L233.788 349.936L235.341 350.999L236.925 351.781L238.514 352.279L240.085 352.493L241.613 352.426L243.075 352.082L244.447 351.468L245.708 350.592L246.835 349.465L247.808 348.099L248.607 346.509L249.214 344.71L249.613 342.721L249.789 340.56L249.729 338.249L249.422 335.807L248.858 333.258L248.03 330.625L246.933 327.93L245.565 325.2L243.925 322.457L242.013 319.726L239.835 317.03L237.394 314.394L234.701 311.841L231.763 309.392L228.593 307.069L225.206 304.893L221.615 302.88L217.84 301.051L213.897 299.418L209.807 297.998L205.591 296.802L201.272 295.841L196.872 295.122L192.415 294.651L187.925 294.434L183.426 294.471L178.943 294.763L174.5 295.306L170.122 296.097L165.83 297.128L161.649 298.391L157.6 299.874L153.704 301.566L149.981 303.451L146.448 305.513L143.123 307.735L140.02 310.096L137.152 312.578L134.532 315.158L132.167 317.814L130.066 320.522L128.234 323.259L126.673 326.001L125.384 328.723L124.367 331.402L123.617 334.013L123.129 336.533L122.895 338.939L122.905 341.209L123.148 343.322L123.609 345.257L124.275 346.996L125.126 348.522L126.146 349.82L127.314 350.875L128.61 351.675L130.011 352.211L131.495 352.475L133.038 352.46L134.616 352.163L136.206 351.581L137.784 350.717L139.324 349.572L140.804 348.152L142.201 346.463L143.492 344.514L144.656 342.317L145.672 339.885L146.521 337.232L147.185 334.375L147.648 331.332L147.896 328.121L147.916 324.765L147.697 321.285L147.23 317.703L146.508 314.042L145.527 310.327L144.284 306.581L142.779 302.829L141.013 299.096L138.991 295.405L136.719 291.78L134.205 288.243L131.46 284.818L128.495 281.525L125.324 278.384L121.964 275.414L118.431 272.631L114.746 270.052L110.926 267.691L106.995 265.558L102.975 263.665L98.8871 262.019L94.7569 260.626L90.6078 259.489L86.4643 258.611L82.3508 257.991L78.2914 257.625L74.31 257.509L70.43 257.636L66.6739 257.997L63.0632 258.58L59.6187 259.373L56.3595 260.361L53.3035 261.527L50.4671 262.854L47.8648 264.321L45.5095 265.909L43.412 267.596L41.5813 269.359L40.0242 271.175L38.7454 273.021L37.7474 274.872L37.0305 276.704L36.5931 278.493L36.431 280.215L36.5382 281.848L36.9063 283.367L37.5253 284.752L38.3829 285.982L39.4652 287.037L40.7563 287.898L42.2391 288.549L43.8946 288.974L45.703 289.161L47.6429 289.098L49.6922 288.774L51.8279 288.183L54.0265 287.319L56.2641 286.179L58.5164 284.762L60.7593 283.069L62.9688 281.102L65.1213 278.868L67.1936 276.373L69.1636 273.629L71.0097 270.645L72.7119 267.435L74.251 264.015L75.6095 260.401L76.7715 256.612L77.7225 252.667L78.4503 248.588L78.9442 244.396L79.1956 240.115L79.1982 235.766L78.9474 231.376L78.4413 226.968L77.6796 222.566L76.6647 218.195L75.4009 213.878L73.8946 209.64L72.1543 205.503L70.1907 201.49L68.0161 197.62L65.6449 193.915L63.0931 190.392L60.3783 187.068L57.5195 183.96L54.5369 181.079L51.4521 178.438L48.2873 176.047L45.0657 173.913L41.8109 172.041L38.5472 170.436L35.2987 169.098L32.0897 168.026L28.9444 167.217L25.8863 166.665L22.9386 166.365L20.1235 166.305L17.4625 166.474L14.9758 166.86L12.6823 167.446L10.5995 168.218L8.74329 169.155L7.1279 170.239L5.76569 171.449L4.66709 172.763L3.84051 174.159L3.2923 175.613L3.02667 177.102L3.04564 178.601L3.34909 180.086L3.93467 181.533L4.7979 182.92L5.93216 184.221L7.32874 185.416L8.97697 186.481L10.8642 187.398L12.976 188.145L15.2963 188.706L17.8074 189.064L20.4901 189.204L23.3241 189.112L26.2878 188.779L29.3589 188.193L32.5141 187.35L35.7297 186.242L38.9816 184.868L42.2456 183.227L45.4973 181.321L48.7127 179.152L51.8681 176.727L54.9407 174.053L57.9079 171.142L60.7487 168.004L63.4429 164.653L65.9716 161.104L68.3175 157.376L70.4647 153.486L72.3993 149.455L74.109 145.303L75.5834 141.054L76.8144 136.729L77.7958 132.352L78.5235 127.948L78.9956 123.54L79.2124 119.154L79.1764 114.813L78.8922 110.542L78.3666 106.364L77.6085 102.302L76.6285 98.3765L75.4395 94.6097L74.056 91.0207L72.4941 87.6277L70.7717 84.4473L68.9078 81.4945L66.923 78.7823L64.8386 76.3221L62.6772 74.1231L60.4619 72.1927L58.2163 70.5358L55.9646 69.1554L53.7308 68.0523L51.5392 67.2251L49.4136 66.6702L47.3776 66.3819L45.454 66.3524L43.6648 66.5717L42.0311 67.0281L40.5728 67.708L39.3086 68.5959L38.2554 69.6748L37.4288 70.9263L36.8426 72.3305L36.5086 73.8665L36.4369 75.5122L36.6353 77.2449L37.1098 79.0412L37.8641 80.8772L38.8996 82.7288L40.2157 84.5718L41.8095 86.3823L43.6762 88.1366L45.8086 89.8115L48.1975 91.3846L50.8317 92.8344L53.6983 94.1406L56.7823 95.2839L60.0673 96.2466L63.5351 97.0124L67.1663 97.5668L70.9403 97.897L74.8351 97.9922L78.8282 97.8435L82.8962 97.4442L87.0151 96.7895L91.1608 95.877L95.3087 94.7062L99.4347 93.2792L103.515 91.5997L107.525 89.6741L111.442 87.5105L115.245 85.1191L118.911 82.5123L122.422 79.704L125.758 76.7099L128.902 73.5475L131.838 70.2356L134.554 66.7943L137.036 63.2449L139.275 59.6096L141.263 55.9115L142.994 52.1742L144.465 48.422L145.673 44.679L146.619 40.9695L147.306 37.3179L147.74 33.7478L147.927 30.2826L147.876 26.9447L147.599 23.7557L147.108 20.7362L146.418 17.9052L145.546 15.2808L144.509 12.879L143.327 10.7144L142.021 8.79986L140.612 7.14609L139.122 5.76196L137.575 4.65421L135.995 3.82748L134.405 3.28422L132.83 3.02473L131.293 3.0471L129.819 3.34727L128.431 3.91903L127.151 4.75409L126.001 5.84216L125.003 7.17098L124.175 8.72649L123.536 10.4929L123.103 12.4528L122.89 14.5874L122.912 16.8766L123.179 19.2991L123.702 21.8326L124.487 24.4541L125.54 27.1401L126.865 29.8666L128.462 32.6093L130.331 35.3439L132.467 38.0465L134.866 40.6934L137.52 43.2614L140.42 45.7283L143.553 48.0726L146.907 50.274L150.466 52.3136L154.214 54.1736L158.131 55.8382L162.199 57.293L166.396 58.5254L170.7 59.525L175.089 60.2831L179.539 60.7933L184.025 61.0511L188.524 61.0545L193.011 60.8032L197.462 60.2996L201.853 59.5478L206.16 58.5544L210.36 57.3279L214.431 55.8788L218.353 54.2195L222.105 52.3644L225.669 50.3293L229.029 48.1318L232.168 45.791L235.074 43.3271L237.734 40.7614L240.14 38.1163L242.284 35.4148L244.159 32.6807L245.763 29.9379L247.095 27.2107L248.156 24.5234L248.948 21.8998L249.477 19.3637L249.751 16.9381L249.779 14.6452L249.572 12.5063L249.145 10.5416L248.511 8.76989L247.688 7.20868L246.693 5.87377L245.547 4.77926L244.271 3.93747L242.885 3.35875L241.413 3.05142L239.877 3.02175L238.303 3.27387L236.713 3.80973L235.132 4.6291L233.584 5.72958L232.093 7.1066L230.681 8.75344L229.372 10.6613L228.187 12.8195L227.146 15.2153L226.269 17.8342L225.574 20.66L225.078 23.6748L224.795 26.8597L224.738 30.194L224.918 33.6562L225.345 37.2238L226.026 40.8736L226.966 44.5818L228.167 48.3243L229.631 52.0766L231.355 55.8145L233.336 59.5139L235.569 63.1512L238.045 66.7031L240.754 70.1475L243.686 73.4631L246.824 76.6296L250.155 79.6283L253.662 82.4417L257.324 85.0539L261.124 87.451L265.038 89.6207L269.047 91.5527L273.125 93.2386L277.25 94.6723L281.398 95.8498L285.544 96.769L289.664 97.4304L293.733 97.8363L297.729 97.9914L301.626 97.9025L305.404 97.5783L309.039 97.0296L312.511 96.2691L315.801 95.3114L318.891 94.1725L321.763 92.8704L324.403 91.424L326.799 89.8538L328.938 88.1813L330.812 86.4288L332.413 84.6195L333.736 82.777L334.779 80.9253L335.541 79.0886L336.022 77.291L336.228 75.5563L336.163 73.908L335.836 72.3689L335.256 70.961L334.436 69.7053L333.388 68.6216L332.129 67.7285L330.676 67.043L329.046 66.5806L327.261 66.3549L325.34 66.3779L323.307 66.6594L321.184 67.2073L318.993 68.0273L316.76 69.1232L314.509 70.4963L312.263 72.146L310.046 74.0694L307.883 76.2615L305.797 78.715L303.809 81.4207L301.942 84.3675L300.215 87.5421L298.649 90.9298L297.261 94.5139L296.066 98.2763L295.081 102.197L294.317 106.257L293.785 110.432L293.494 114.701L293.452 119.04L293.662 123.426L294.127 127.833L294.848 132.237L295.823 136.615L297.048 140.942L298.516 145.194L300.22 149.348L302.149 153.383L304.29 157.277L306.631 161.01L309.156 164.563L311.846 167.919L314.683 171.063L317.647 173.981L320.717 176.66L323.871 179.092L327.085 181.267L330.336 183.181L333.6 184.829L336.852 186.21L340.069 187.324L343.226 188.175L346.3 188.766L349.267 189.107L352.104 189.204L354.791 189.071L357.307 188.718L359.633 188.163L361.75 187.42L363.643 186.507L365.298 185.445L366.701 184.254L367.842 182.955L368.713 181.57L369.306 180.124L369.617 178.64L369.643 177.141L369.385 175.652L368.844 174.196L368.024 172.799L366.933 171.482L365.577 170.269L363.968 169.182L362.118 168.24L360.041 167.464L357.753 166.872L355.271 166.481L352.614 166.306L349.803 166.36L346.858 166.654L343.803 167.199L340.66 168.001L337.452 169.066L334.204 170.398L330.941 171.996L327.685 173.861L324.462 175.988L321.296 178.373L318.209 181.007L315.223 183.882L312.361 186.985L309.642 190.303L307.086 193.821L304.71 197.522L302.53 201.387L300.561 205.397L298.814 209.531L297.302 213.767L296.032 218.081L295.01 222.451L294.242 226.853L293.729 231.261L293.472 235.653L293.468 240.002L293.713 244.286L294.2 248.48L294.922 252.563L295.868 256.511L297.024 260.305L298.378 263.923L299.912 267.348L301.611 270.564L303.453 273.554L305.42 276.305L307.49 278.806L309.641 281.047L311.849 283.021L314.091 284.722L316.344 286.146L318.582 287.293L320.782 288.164L322.92 288.762L324.972 289.092L326.915 289.163L328.727 288.982L330.386 288.563L331.874 287.917L333.17 287.062L334.258 286.012L335.122 284.787L335.747 283.405L336.122 281.889L336.236 280.259L336.081 278.539L335.651 276.751L334.941 274.92L333.951 273.069L332.679 271.223L331.129 269.406L329.306 267.641L327.215 265.952L324.866 264.361L322.27 262.89L319.44 261.56L316.389 260.389L313.135 259.397L309.695 258.599L306.089 258.01L302.336 257.643L298.459 257.51L294.48 257.619L290.422 257.978L286.31 258.592L282.167 259.463L278.018 260.593L273.886 261.979L269.798 263.619L265.775 265.506L261.841 267.632L258.019 269.988L254.329 272.561L250.793 275.339L247.428 278.304L244.252 281.441L241.281 284.73L238.53 288.153L236.01 291.686L233.731 295.309L231.703 298.999L229.931 302.732L228.419 306.483L227.169 310.229L226.181 313.946L225.452 317.608L224.979 321.193L224.753 324.676L224.767 328.036L225.009 331.25L225.467 334.298L226.126 337.16L226.97 339.819L227.982 342.257L229.142 344.46L230.43 346.415L231.824 348.111L233.303 349.539L234.842 350.691L236.419 351.563L238.009 352.151L239.588 352.456L241.132 352.478L242.618 352.222L244.021 351.693L245.32 350.899L246.492 349.85L247.516 348.559L248.372 347.039L249.042 345.305L249.509 343.374L249.758 341.266L249.774 339L249.547 336.598L249.066 334.08L248.322 331.471L247.312 328.794L246.031 326.072L244.477 323.33L242.652 320.593L240.557 317.884L238.2 315.226L235.586 312.644L232.724 310.16L229.627 307.794L226.308 305.569L222.78 303.502L219.061 301.613L215.17 299.916L211.124 298.427L206.947 297.158L202.658 296.121L198.281 295.324L193.839 294.774L189.357 294.476L184.859 294.432L180.368 294.643L175.91 295.106L171.508 295.819L167.186 296.774L162.968 297.964L158.874 299.379L154.928 301.005L151.147 302.83L147.552 304.838L144.159 307.011L140.983 309.33L138.039 311.776L135.339 314.327L132.892 316.961L130.706 319.655L128.788 322.385L127.14 325.128L125.765 327.86L124.662 330.555L123.827 333.19L123.256 335.742L122.942 338.187L122.876 340.502L123.046 342.667L123.44 344.661L124.042 346.464L124.836 348.06L125.804 349.432L126.927 350.566L128.185 351.449L129.555 352.07L131.015 352.421L132.541 352.495L134.111 352.288L135.7 351.797L137.284 351.023L138.839 349.967L140.341 348.634L141.767 347.029L143.094 345.162L144.3 343.043L145.365 340.684L146.269 338.1L146.994 335.306L147.523 332.32L147.841 329.161L147.935 325.849L147.793 322.406L147.406 318.853L146.766 315.215L145.868 311.514L144.708 307.776L143.286 304.023L141.604 300.282L139.663 296.574L137.47 292.926L135.032 289.359L132.359 285.896L129.462 282.558L126.355 279.367L123.054 276.34L119.574 273.496L115.935 270.851L112.156 268.419L108.258 266.212L104.264 264.241L100.195 262.516L96.0757 261.042L91.93 259.823L87.782 258.863L83.6563 258.16L79.5771 257.714L75.5683 257.519L71.6535 257.57L67.8555 257.857L64.1963 258.371L60.6966 259.099L57.3764 260.026L54.2539 261.137L51.3458 262.415L48.6675 263.84L46.2322 265.391L44.0516 267.049L42.135 268.79L40.4902 270.592L39.1223 272.431L38.0347 274.283L37.2284 276.124L36.7023 277.929L36.4531 279.675L36.4753 281.339L36.7613 282.897L37.3016 284.327L38.0847 285.608L39.097 286.721L40.3234 287.645L41.7471 288.365L43.3497 288.864L45.1116 289.128L47.012 289.146L49.0289 288.906L51.1396 288.401L53.3208 287.624L55.5486 286.573L57.7988 285.244L60.0474 283.638L62.2701 281.758L64.4433 279.608L66.5436 277.196L68.5485 274.529L70.4364 271.62L72.1865 268.481L73.7795 265.126L75.1974 261.572L76.4236 257.837L77.4433 253.94L78.2434 249.901L78.8128 245.742L79.1423 241.487L79.2247 237.157L79.055 232.778L78.6303 228.372L77.9499 223.966L77.0153 219.582L75.8301 215.246L74.4002 210.98L72.7334 206.809L70.8397 202.753L68.7308 198.836L66.4206 195.076L63.9245 191.493L61.2596 188.105L58.4445 184.926L55.4991 181.971L52.4444 179.253L49.3026 176.781L46.0966 174.564L42.8498 172.609L39.5863 170.918L36.3303 169.495L33.1061 168.338L29.9379 167.446L26.8495 166.813L23.8642 166.434L21.0045 166.298L18.2922 166.396L15.7478 166.714L13.3908 167.239L11.2391 167.953L9.30905 168.84L7.61553 169.879L6.17144 171.051L4.98786 172.335L4.07385 173.707L3.43641 175.145L3.08044 176.625L3.00867 178.123L3.22166 179.616L3.71776 181.078L4.49316 182.486L5.54193 183.817L6.85603 185.048L8.42538 186.157L10.238 187.123L12.2799 187.927L14.5357 188.549L16.988 188.973L19.6182 189.184L22.4063 189.167L25.331 188.912L28.3704 188.408L31.5014 187.647L34.7003 186.624L37.9433 185.335L41.2061 183.779L44.4643 181.957L47.6939 179.871L50.871 177.527L53.9723 174.931L56.9755 172.094L59.8588 169.027L62.6018 165.742L65.1852 162.255L67.5911 158.582L69.8032 154.742L71.8069 150.753L73.5894 146.638L75.1398 142.417L76.4492 138.113L77.5106 133.75L78.3194 129.352L78.8729 124.943L79.1709 120.547L79.215 116.19L79.0093 111.894L78.5598 107.684L77.8746 103.582L76.964 99.6105L75.8401 95.7911L74.5169 92.1435L73.0099 88.6862L71.3366 85.4364L69.5156 82.4095L67.567 79.6194L65.512 77.0778L63.3727 74.7947L61.172 72.7781L58.9335 71.0336L56.681 69.565L54.4389 68.3736L52.2313 67.4588L50.0821 66.8177L48.015 66.4453L46.0532 66.3342L44.2188 66.4755L42.5334 66.8578L41.0172 67.4681L39.6892 68.2915L38.567 69.3115L37.6666 70.5101L37.0024 71.8679L36.587 73.3642L36.4307 74.9774L36.5424 76.685L36.9285 78.4636L37.5933 80.2895L38.5392 82.1388L39.7661 83.9872L41.272 85.8106L43.0524 87.5853L45.1011 89.2879L47.4093 90.8959L49.9668 92.3873L52.7609 93.7414L55.7773 94.9385L59.0002 95.9606L62.4118 96.7907L65.9932 97.4139L69.724 97.8168L73.5827 97.9879L77.547 97.9178L81.5937 97.5989L85.6991 97.026L89.8388 96.1957L93.9887 95.1071L98.1243 93.7614L102.221 92.1617L106.256 90.3137L110.206 88.2249L114.047 85.9049L117.759 83.3652L121.322 80.6195L124.715 77.6828L127.922 74.572L130.926 71.3056L133.714 67.9032L136.271 64.3859L138.589 60.7754L140.658 57.0948L142.471 53.3675L144.025 49.6173L145.316 45.8687L146.346 42.146L147.115 38.4733L147.629 34.8747L147.894 31.3736L147.917 27.9928L147.711 24.7541L147.286 21.6784L146.658 18.7854L145.842 16.0933L144.856 13.6189L143.718 11.3773L142.449 9.38188L141.07 7.64399L139.604 6.17313L138.073 4.97674L136.5 4.06012L134.911 3.42644L133.328 3.07666L131.777 3.00958L130.28 3.22184L128.862 3.70789L127.545 4.46011L126.352 5.46882L125.303 6.7224L124.419 8.20734L123.718 9.90839L123.217 11.8087L122.933 13.8897L122.879 16.1319L123.067 18.5143L123.507 21.0149L124.208 23.611L125.175 26.279L126.413 28.9952L127.924 31.7354L129.706 34.4752L131.758 37.1906L134.074 39.8578L136.648 42.4534L139.47 44.9548L142.531 47.3404L145.816 49.5895L149.311 51.6826L153.001 53.6016L156.866 55.3301L160.888 56.8531L165.047 58.1577L169.319 59.2324L173.683 60.0683L178.116 60.658L182.594 60.9966L187.091 61.0811L191.585 60.9108L196.05 60.4872L200.462 59.8139L204.798 58.8966L209.035 57.7433L213.149 56.3638L217.121 54.77L220.929 52.9756L224.555 50.996L227.982 48.8483L231.193 46.551L234.174 44.124L236.914 41.5883L239.402 38.966L241.63 36.28L243.591 33.5537L245.282 30.811L246.701 28.0763L247.847 25.3736L248.724 22.7271L249.337 20.1607L249.691 17.6974L249.796 15.3598L249.663 13.1696L249.304 11.1473L248.734 9.31219L247.969 7.68213L247.027 6.27352L245.928 5.10102L244.69 4.17751L243.337 3.51399L241.89 3.11943L240.372 3.00077L238.807 3.16281L237.22 3.60821L235.633 4.33744L234.072 5.34877L232.56 6.63833L231.121 8.20008L229.776 10.0259L228.549 12.1057L227.461 14.4273L226.53 16.9767L225.775 19.7385L225.214 22.6951L224.861 25.828L224.731 29.1169L224.835 32.5408L225.182 36.0773L225.782 39.7035L226.638 43.3958L227.756 47.13L229.136 50.8818L230.778 54.6269L232.678 58.3412L234.831 62.0008L237.23 65.5823L239.867 69.0634L242.729 72.4222L245.803 75.6384L249.075 78.6925L252.527 81.5666L256.142 84.2446L259.9 86.7116L263.78 88.955L267.761 90.9636L271.82 92.7287L275.932 94.2433L280.075 95.5027L284.225 96.5043L288.356 97.2476L292.444 97.7345L296.465 97.9689L300.397 97.9568L304.215 97.7065L307.898 97.228L311.424 96.5335L314.774 95.6369L317.929 94.5539L320.873 93.3017L323.588 91.8991L326.063 90.3661L328.285 88.7238L330.244 86.9943L331.933 85.2006L333.345 83.366L334.477 81.5147L335.328 79.6706L335.899 77.8579L336.192 76.1006L336.213 74.4223L335.968 72.846L335.467 71.3939L334.722 70.0875L333.745 68.947L332.552 67.9912L331.159 67.2379L329.583 66.7028L327.845 66.4004L325.966 66.343L323.966 66.5411L321.868 67.0034L319.697 67.7363L317.475 68.744L315.227 70.0288L312.976 71.5907L310.748 73.4273L308.565 75.5345L306.452 77.9056L304.43 80.5321L302.522 83.4035L300.749 86.507L299.129 89.8286L297.683 93.352L296.425 97.0597L295.371 100.932L294.535 104.95L293.928 109.091L293.56 113.333L293.438 117.652L293.567 122.025L293.951 126.428L294.591 130.836L295.485 135.225L296.631 139.571L298.022 143.849L299.652 148.037L301.51 152.112L303.586 156.053L305.865 159.839L308.333 163.451L310.972 166.872L313.764 170.085L316.69 173.077L319.729 175.833L322.859 178.345L326.056 180.603L329.298 182.6L332.56 184.333L335.819 185.799L339.05 186.998L342.229 187.932L345.331 188.606L348.335 189.025L351.216 189.199L353.953 189.137L356.525 188.853L358.914 188.361L361.099 187.675L363.065 186.815L364.798 185.799L366.282 184.646L367.508 183.379L368.465 182.019L369.147 180.59L369.548 179.115L369.665 177.618L369.498 176.123L369.047 174.655L368.315 173.236L367.31 171.891L366.037 170.643L364.508 169.513L362.733 168.523L360.726 167.692L358.504 167.04L356.081 166.583L353.478 166.338L350.714 166.317L347.81 166.534L344.787 166.998L341.669 167.717L338.479 168.698L335.242 169.945L331.98 171.458L328.72 173.238L325.484 175.282L322.297 177.586L319.182 180.142L316.162 182.941L313.258 185.972L310.491 189.223L307.881 192.679L305.446 196.324L303.202 200.139L301.164 204.105L299.346 208.202L297.758 212.408L296.409 216.7L295.308 221.055L294.459 225.449L293.865 229.858L293.526 234.257L293.442 238.623L293.608 242.93L294.019 247.155L294.667 251.276L295.543 255.269L296.634 259.114L297.926 262.791L299.405 266.279L301.053 269.563L302.852 272.627L304.781 275.455L306.821 278.037L308.948 280.362L311.141 282.422L313.375 284.21L315.627 285.722L317.872 286.958L320.087 287.917L322.247 288.601L324.329 289.016L326.309 289.168L328.165 289.066L329.875 288.721L331.42 288.147L332.779 287.356L333.935 286.366L334.872 285.195L335.575 283.861L336.03 282.385L336.229 280.789L336.16 279.095L335.818 277.326L335.198 275.506L334.297 273.659L333.115 271.809L331.653 269.98L329.916 268.196L327.909 266.48L325.642 264.856L323.123 263.344L320.366 261.967L317.384 260.744L314.193 259.692L310.81 258.831L307.254 258.174L303.546 257.735L299.706 257.526L295.757 257.557L291.722 257.836L287.624 258.368L283.488 259.157L279.338 260.205L275.199 261.51L271.094 263.069L267.048 264.878L263.083 266.929L259.223 269.213L255.489 271.719L251.901 274.433L248.48 277.34L245.242 280.424L242.204 283.667L239.382 287.049L236.787 290.55L234.43 294.147L232.321 297.818L230.467 301.539L228.872 305.288L227.538 309.038L226.467 312.767L225.656 316.449L225.102 320.061L224.798 323.579L224.737 326.98L224.908 330.243L225.298 333.346L225.895 336.27L226.682 338.995L227.643 341.505L228.758 343.785L230.007 345.82L231.37 347.6L232.824 349.114L234.347 350.354L235.914 351.316L237.502 351.994L239.087 352.389L240.646 352.501L242.152 352.333L243.585 351.89L244.919 351.18L246.133 350.211L247.207 348.996L248.119 347.547L248.85 345.879L249.384 344.009L249.703 341.956L249.795 339.738L249.646 337.376L249.247 334.893L248.588 332.311L247.663 329.652L246.468 326.942L245.001 324.204L243.262 321.463L241.253 318.742L238.979 316.066L236.446 313.457L233.662 310.939L230.639 308.534L227.388 306.262L223.925 304.142L220.265 302.194L216.427 300.435L212.428 298.878L208.29 297.538L204.035 296.426L199.683 295.551L195.26 294.922L190.788 294.543L186.292 294.418L181.796 294.548L177.325 294.931L172.903 295.565L168.553 296.444L164.299 297.56L160.163 298.905L156.168 300.465L152.332 302.229L148.676 304.18L145.216 306.302L141.97 308.577L138.951 310.984L136.172 313.504L133.643 316.114L131.374 318.792L129.37 321.513L127.636 324.255L126.174 326.992L124.984 329.702L124.064 332.359L123.41 334.94L123.015 337.421L122.871 339.78L122.967 341.995L123.291 344.045L123.828 345.912L124.563 347.575L125.478 349.02L126.554 350.231L127.771 351.195L129.107 351.901L130.541 352.339L132.049 352.502L133.608 352.385L135.193 351.984L136.782 351.3L138.348 350.334L139.87 349.088L141.322 347.569L142.683 345.785L143.93 343.745L145.043 341.461L146 338.947L146.784 336.218L147.377 333.291L147.764 330.185L147.93 326.919L147.865 323.515L147.556 319.995L146.997 316.382L146.182 312.698L145.106 308.969L143.768 305.219L142.168 301.471L140.309 297.75L138.195 294.08L135.834 290.485L133.235 286.986L130.408 283.606L127.367 280.366L124.126 277.285L120.701 274.381L117.11 271.671L113.374 269.169L109.511 266.89L105.545 264.843L101.498 263.039L97.3918 261.484L93.2519 260.183L89.102 259.141L84.9666 258.356L80.8699 257.829L76.8362 257.554L72.8889 257.528L69.0513 257.741L65.3455 258.184L61.7928 258.845L58.4134 259.71L55.226 260.765L52.2479 261.991L49.4948 263.371L46.9808 264.885L44.7179 266.511L42.7163 268.228L40.9843 270.013L39.5277 271.843L38.3506 273.693L37.4547 275.54L36.8396 277.359L36.5027 279.127L36.4391 280.819L36.6421 282.413L37.1026 283.887L37.8097 285.218L38.7505 286.386L39.9105 287.372L41.2733 288.159L42.821 288.73L44.5344 289.07L46.393 289.168L48.3752 289.011L50.4585 288.591L52.6198 287.901L54.8354 286.938L57.0811 285.697L59.3328 284.179L61.5663 282.386L63.7578 280.322L65.8839 277.992L67.9216 275.406L69.849 272.573L71.6452 269.505L73.2903 266.217L74.7658 262.725L76.0547 259.045L77.1417 255.197L78.0131 251.201L78.6571 247.079L79.0639 242.851L79.2256 238.543L79.1366 234.177L78.7933 229.777L78.1943 225.368L77.3404 220.974L76.2345 216.62L74.8818 212.33L73.2895 208.126L71.4668 204.031L69.4251 200.067L67.1774 196.255L64.7388 192.614L62.1257 189.162L59.3563 185.915L56.4502 182.887L53.428 180.092L50.3115 177.541L47.1234 175.242L43.887 173.203L40.6262 171.428L37.3651 169.919L34.1282 168.678L30.9395 167.702L27.8231 166.987L24.8025 166.528L21.9004 166.315L19.1389 166.34L16.5388 166.59L14.1201 167.05L11.9011 167.706L9.89882 168.54L8.12848 169.533L6.60364 170.665L5.336 171.915L4.33526 173.262L3.6091 174.681L3.16307 176.151L3.00061 177.646L3.12297 179.142L3.52919 180.617L4.21618 182.045L5.17865 183.403L6.40923 184.668L7.89848 185.818L9.63501 186.832L11.6055 187.69L13.795 188.372L16.1866 188.86L18.7623 189.141L21.5023 189.198L24.3859 189.02L27.3912 188.596L30.4955 187.917L33.6754 186.978L36.907 185.774L40.1661 184.304L43.4284 182.566L46.6697 180.563L49.8661 178.301L52.9941 175.785L56.0309 173.024L58.9547 170.028L61.7445 166.811L64.3807 163.387L66.845 159.771L69.1205 155.982L71.1921 152.039L73.0464 147.961L74.6718 143.771L76.0587 139.491L77.1997 135.145L78.0894 130.755L78.7244 126.347L79.1037 121.945L79.2283 117.572L79.1016 113.254L78.729 109.014L78.1178 104.875L77.2778 100.86L76.2204 96.99L74.9591 93.2856L73.5088 89.7657L71.8866 86.448L70.1105 83.3486L68.2003 80.4816L66.1768 77.8597L64.0619 75.4934L61.8782 73.3912L59.6491 71.5595L57.3985 70.0027L55.1505 68.723L52.9293 67.7204L50.7589 66.9925L48.6631 66.5352L46.6653 66.3417L44.788 66.4038L43.0528 66.7106L41.4806 67.2498L40.0906 68.007L38.9011 68.9663L37.9284 70.1101L37.1876 71.4194L36.6916 72.8739L36.4518 74.4523L36.4773 76.1322L36.7754 77.8908L37.3511 79.7042L38.2074 81.5487L39.3449 83.4L40.7622 85.234L42.4558 87.0267L44.4199 88.7548L46.6465 90.3953L49.1258 91.9261L51.846 93.3262L54.7933 94.5754L57.9522 95.6551L61.3057 96.5481L64.8352 97.2387L68.5207 97.7131L72.341 97.9592L76.2742 97.9668L80.2972 97.7279L84.3865 97.2363L88.5179 96.4882L92.6672 95.4819L96.81 94.2178L100.922 92.6985L104.979 90.9289L108.958 88.9158L112.837 86.6683L116.592 84.1972L120.204 81.5156L123.654 78.6379L126.922 75.5807L129.992 72.3618L132.85 69.0005L135.482 65.5174L137.877 61.9342L140.026 58.2734L141.921 54.5583L143.558 50.8129L144.933 47.0611L146.046 43.3275L146.898 39.6363L147.493 36.0115L147.836 32.4768L147.935 29.0553L147.801 25.769L147.444 22.6392L146.879 19.6859L146.121 16.928L145.187 14.3825L144.096 12.0652L142.866 9.99005L141.52 8.16898L140.079 6.61217L138.566 5.32768L137.004 4.32149L135.418 3.59747L133.83 3.15729L132.266 3.00043L130.75 3.12421L129.304 3.52377L127.953 4.19216L126.717 5.12035L125.62 6.2973L124.682 7.71012L123.92 9.34409L123.354 11.1828L122.999 13.2084L122.87 15.4015L122.98 17.7415L123.339 20.2069L123.956 22.7751L124.838 25.4228L125.99 28.1263L127.413 30.8614L129.109 33.604L131.075 36.3298L133.308 39.0148L135.8 41.6357L138.545 44.1696L141.531 46.5944L144.746 48.8891L148.176 51.0339L151.806 53.0103L155.617 54.8012L159.591 56.3911L163.709 57.7666L167.947 58.9156L172.285 59.8284L176.698 60.4972L181.164 60.9162L185.658 61.0818L190.155 60.9926L194.632 60.6494L199.064 60.0551L203.427 59.2148L207.697 58.1357L211.853 56.8271L215.873 55.3002L219.735 53.5681L223.421 51.6457L226.913 49.5495L230.194 47.2978L233.25 44.9099L236.068 42.4065L238.638 39.8093L240.949 37.1411L242.996 34.425L244.773 31.685L246.278 28.945L247.511 26.2295L248.474 23.5626L249.17 20.9681L249.606 18.4694L249.789 16.0894L249.73 13.85L249.442 11.7721L248.938 9.8753L248.233 8.17807L247.345 6.69724L246.294 5.44805L245.098 4.44395L243.779 3.69654L242.359 3.21545L240.861 3.00829L239.309 3.08053L237.726 3.43551L236.137 4.07441L234.565 4.9962L233.035 6.19769L231.57 7.67352L230.193 9.41624L228.926 11.4163L227.791 13.6623L226.808 16.1408L225.995 18.8368L225.37 21.7333L224.95 24.8121L224.747 28.0536L224.775 31.4369L225.044 34.94L225.563 38.5402L226.337 42.214L227.372 45.9374L228.668 49.6863L230.226 53.4362L232.045 57.1629L234.118 60.8425L236.44 64.4514L239.002 67.9668L241.793 71.3669L244.801 74.6306L248.012 77.7383L251.409 80.6717L254.974 83.4138L258.689 85.9495L262.532 88.2654L266.484 90.3499L270.52 92.1934L274.618 93.7884L278.754 95.1294L282.904 96.2133L287.043 97.0388L291.148 97.6071L295.193 97.9213L299.156 97.987L303.012 97.8115L306.74 97.4044L310.319 96.7773L313.727 95.9435L316.946 94.9181L319.959 93.7178L322.749 92.3611L325.302 90.8673L327.605 89.2575L329.649 87.5533L331.425 85.7775L332.925 83.9534L334.147 82.1048L335.088 80.2557L335.748 78.4304L336.129 76.6529L336.235 74.9469L336.074 73.3356L335.654 71.8417L334.985 70.4866L334.081 69.2911L332.955 68.2745L331.623 67.4549L330.104 66.8487L328.415 66.4707L326.578 66.334L324.614 66.4497L322.546 66.8271L320.395 67.4732L318.187 68.393L315.944 69.5895L313.692 71.0632L311.454 72.8127L309.254 74.8343L307.116 77.1222L305.063 79.6684L303.116 82.463L301.298 85.4941L299.627 88.7479L298.124 92.2088L296.804 95.8598L295.684 99.6822L294.777 103.656L294.096 107.76L293.651 111.972L293.45 116.269L293.499 120.628L293.801 125.024L294.36 129.433L295.173 133.831L296.239 138.193L297.553 142.495L299.108 146.714L300.894 150.828L302.902 154.814L305.118 158.651L307.527 162.321L310.114 165.804L312.859 169.085L315.745 172.149L318.75 174.981L321.853 177.572L325.032 179.911L328.262 181.992L331.52 183.81L334.783 185.361L338.025 186.645L341.223 187.663L344.353 188.419L347.39 188.919L350.313 189.17L353.098 189.182L355.725 188.967L358.174 188.539L360.426 187.914L362.464 187.107L364.272 186.138L365.837 185.027L367.146 183.794L368.19 182.461L368.96 181.051L369.451 179.588L369.659 178.096L369.582 176.598L369.221 175.118L368.578 173.681L367.659 172.31L366.471 171.029L365.022 169.859L363.324 168.822L361.39 167.938L359.234 167.227L356.874 166.707L354.326 166.392L351.611 166.299L348.749 166.438L345.761 166.823L342.671 167.46L339.502 168.357L336.277 169.519L333.02 170.947L329.757 172.642L326.511 174.603L323.305 176.824L320.165 179.301L317.112 182.023L314.169 184.982L311.357 188.165L308.695 191.557L306.202 195.144L303.895 198.906L301.79 202.827L299.9 206.884L298.238 211.058L296.812 215.325L295.632 219.662L294.702 224.046L294.026 228.453L293.606 232.858L293.441 237.237L293.528 241.566L293.862 245.82L294.436 249.976L295.24 254.012L296.264 257.907L297.493 261.639L298.915 265.19L300.511 268.541L302.264 271.676L304.154 274.581L306.161 277.242L308.263 279.65L310.437 281.795L312.66 283.67L314.909 285.271L317.159 286.594L319.386 287.641L321.566 288.413L323.676 288.913L325.69 289.148L327.589 289.126L329.348 288.857L330.947 288.354L332.367 287.63L333.59 286.702L334.598 285.586L335.377 284.302L335.913 282.869L336.194 281.309L336.211 279.644L335.957 277.896L335.426 276.09L334.614 274.249L333.522 272.397L332.149 270.559L330.499 268.758L328.577 267.018L326.392 265.362L323.952 263.812L321.269 262.39L318.357 261.115L315.231 260.008L311.907 259.084L308.404 258.36L304.742 257.85L300.942 257.567L297.025 257.521L293.015 257.72L288.935 258.171L284.808 258.878L280.66 259.843L276.515 261.066L272.396 262.545L268.329 264.275L264.336 266.25L260.44 268.461L256.663 270.897L253.027 273.547L249.55 276.394L246.252 279.424L243.149 282.618L240.257 285.958L237.588 289.423L235.154 292.992L232.966 296.642L231.03 300.35L229.352 304.092L227.935 307.845L226.78 311.583L225.887 315.282L225.251 318.919L224.868 322.47L224.731 325.911L224.829 329.22L225.151 332.376L225.684 335.359L226.412 338.149L227.319 340.73L228.387 343.084L229.596 345.199L230.925 347.061L232.352 348.661L233.856 349.989L235.411 351.04L236.996 351.809L238.584 352.294L240.154 352.496L241.679 352.417L243.138 352.061L244.506 351.435L245.761 350.547L246.881 349.409L247.847 348.033L248.638 346.433L249.236 344.626L249.626 342.629L249.791 340.461L249.721 338.143L249.402 335.696L248.826 333.143L247.987 330.506L246.879 327.81L245.498 325.078L243.846 322.335L241.922 319.605L239.732 316.912L237.28 314.279L234.575 311.73L231.627 309.286L228.447 306.97L225.05 304.8L221.452 302.795L217.668 300.974L213.718 299.351L209.622 297.94L205.402 296.755L201.078 295.803L196.675 295.095L192.216 294.636L187.725 294.43L183.227 294.479L178.745 294.782L174.304 295.336L169.929 296.138L165.642 297.18L161.467 298.452L157.424 299.945L153.535 301.646L149.82 303.539L146.296 305.608L142.98 307.837L139.887 310.204L137.031 312.691L134.421 315.274L132.068 317.933L129.979 320.643L128.158 323.381L126.61 326.122L125.333 328.843L124.328 331.52L123.59 334.127L123.113 336.643L122.89 339.043L122.911 341.306L123.164 343.411L123.635 345.338L124.309 347.068L125.168 348.585L126.195 349.872L127.369 350.916L128.67 351.705L130.075 352.229L131.562 352.48L133.107 352.453L134.687 352.143L136.277 351.549L137.853 350.672L139.391 349.515L140.868 348.082L142.261 346.382L143.547 344.422L144.704 342.214L145.713 339.772L146.554 337.109L147.21 334.243L147.664 331.192L147.902 327.975L147.911 324.613L147.681 321.128L147.203 317.541L146.47 313.878L145.477 310.161L144.223 306.414L142.706 302.663L140.929 298.931L138.896 295.242L136.613 291.62L134.088 288.089L131.333 284.669L128.358 281.382L125.179 278.248L121.811 275.286L118.271 272.512L114.579 269.943L110.754 267.591L106.818 265.469L102.794 263.587L98.7044 261.952L94.5728 260.57L90.4235 259.445L86.2808 258.578L82.1692 257.969L78.1128 257.615L74.1354 257.51L70.2604 257.648L66.5103 258.018L62.9066 258.611L59.4699 259.413L56.2193 260.409L53.1728 261.583L50.3465 262.916L47.7549 264.389L45.4108 265.982L43.325 267.673L41.5063 269.439L39.9615 271.257L38.6951 273.103L37.7096 274.953L37.0052 276.784L36.5801 278.571L36.4301 280.29L36.549 281.918L36.9286 283.432L37.5584 284.81L38.4263 286.033L39.5182 287.079L40.8182 287.931L42.3091 288.572L43.9719 288.988L45.7865 289.164L47.7317 289.089L49.7853 288.754L51.9244 288.151L54.1252 287.275L56.3639 286.122L58.6164 284.693L60.8583 282.987L63.0658 281.008L65.2152 278.762L67.2834 276.257L69.2483 273.501L71.0885 270.507L72.7838 267.287L74.3153 263.858L75.6654 260.236L76.8183 256.44L77.7597 252.489L78.4773 248.404L78.9605 244.208L79.2011 239.923L79.1924 235.572L78.9304 231.18L78.4129 226.772L77.6399 222.371L76.6139 218.001L75.3391 213.688L73.8222 209.454L72.0717 205.322L70.0985 201.315L67.9148 197.452L65.5353 193.754L62.9759 190.24L60.2543 186.926L57.3895 183.827L54.4019 180.957L51.313 178.327L48.1452 175.947L44.9216 173.824L41.666 171.964L38.4024 170.371L35.1552 169.044L31.9485 167.984L28.8065 167.187L25.7529 166.647L22.8106 166.357L20.0019 166.307L17.3483 166.487L14.8697 166.882L12.5852 167.477L10.5121 168.256L8.66635 169.2L7.06196 170.29L5.71124 171.506L4.62455 172.824L3.81022 174.223L3.27448 175.679L3.02146 177.168L3.05309 178.667L3.36914 180.151L3.96716 181.596L4.84258 182.979L5.98868 184.277L7.39669 185.466L9.05581 186.525L10.9533 187.435L13.0748 188.174L15.4039 188.727L17.923 189.075L20.6129 189.205L23.4531 189.103L26.4221 188.758L29.4974 188.161L32.6558 187.306L35.8735 186.187L39.1265 184.801L42.3904 183.148L45.641 181.23L48.8542 179.05L52.0065 176.613L55.0748 173.929L58.0369 171.007L60.8716 167.859L63.5588 164.499L66.0798 160.943L68.4172 157.207L70.5552 153.31L72.4801 149.273L74.1795 145.117L75.6433 140.863L76.8633 136.535L77.8335 132.157L78.5499 127.752L79.0106 123.345L79.2161 118.96L79.169 114.622L78.8739 110.355L78.3378 106.181L77.5696 102.124L76.5801 98.2057L75.3821 94.4464L73.9903 90.8658L72.4209 87.4819L70.6918 84.3113L68.8221 81.3688L66.8324 78.6676L64.7441 76.2188L62.5798 74.0317L60.3626 72.1133L58.1163 70.4686L55.8648 69.1005L53.6324 68.0098L51.4432 67.1947L49.3212 66.6518L47.2896 66.3752L45.3715 66.3569L43.5888 66.587L41.9625 67.0537L40.5125 67.7431L39.2572 68.6399L38.2138 69.7269L37.3976 70.9856L36.8223 72.3961L36.4998 73.9374L36.4399 75.5875L36.6505 77.3235L37.1374 79.1221L37.9041 80.9593L38.9521 82.811L40.2806 84.6531L41.8867 86.4616L43.7653 88.2128L45.9093 89.8836L48.3094 91.4518L50.9542 92.8956L53.8308 94.195L56.9241 95.3306L60.2175 96.2849L63.693 97.0416L67.3311 97.5863L71.1108 97.9063L75.0105 97.9908L79.0074 97.8312L83.0782 97.4206L87.1988 96.7545L91.3451 95.8305L95.4926 94.6483L99.617 93.2099L103.694 91.5194L107.701 89.583L111.614 87.409L115.411 85.0079L119.071 82.3918L122.574 79.5749L125.902 76.5729L129.037 73.4035L131.964 70.0854L134.669 66.6388L137.141 63.0851L139.369 59.4465L141.346 55.7462L143.065 52.0078L144.524 48.2554L145.72 44.5133L146.655 40.806L147.331 37.1575L147.754 33.5916L147.93 30.1315L147.869 26.7998L147.581 23.6179L147.081 20.6063L146.383 17.7842L145.503 15.1693L144.459 12.7777L143.272 10.624L141.96 8.72081L140.547 7.07885L139.054 5.70686L137.505 4.61151L135.924 3.79732L134.334 3.26668L132.76 3.01976L131.226 3.05457L129.755 3.36695L128.371 3.95059L127.097 4.79713L125.954 5.89616L124.962 7.23536L124.142 8.80059L123.512 10.576L123.088 12.5441L122.886 14.686L122.918 16.9815L123.197 19.4094L123.731 21.9473L124.528 24.5722L125.593 27.2605L126.93 29.9882L128.539 32.7311L130.42 35.4648L132.568 38.1654L134.979 40.8093L137.644 43.3733L140.554 45.8352L143.698 48.1736L147.061 50.3682L150.629 52.4001L154.384 54.2518L158.309 55.9074L162.383 57.3525L166.585 58.5748L170.894 59.5638L175.286 60.3111L179.737 60.8101L184.225 61.0567L188.724 61.0487L193.21 60.7862L197.659 60.2714L202.046 59.5088L206.348 58.5049L210.543 57.2682L214.608 55.8095L218.523 54.1412L222.267 52.2777L225.823 50.235L229.173 48.0308L232.302 45.684L235.197 43.2151L237.847 40.6454L240.241 37.9973L242.373 35.2939L244.236 32.5589L245.828 29.8163L247.148 27.0904L248.196 24.4053L248.977 21.7852L249.495 19.2535L249.757 16.8333L249.775 14.5468L249.558 12.4152L249.121 10.4587L248.478 8.69597L247.647 7.14448L246.645 5.81996L245.493 4.73644L244.211 3.90612L242.821 3.33929L241.346 3.04417L239.808 3.02694L238.232 3.29164L236.643 3.84011L235.063 4.67203L233.517 5.78491L232.028 7.17406L230.621 8.8327L229.316 10.752L228.137 12.921L227.103 15.327L226.234 17.9554L225.548 20.79L225.061 23.8128L224.787 27.0047L224.741 30.3451L224.932 33.8125L225.37 37.3843L226.063 41.0372L227.014 44.7475L228.227 48.4909L229.702 52.2431L231.437 55.9798L233.43 59.677L235.674 63.3109L238.16 66.8585L240.88 70.2977L243.821 73.607L246.968 76.7665L250.308 79.7573L253.821 82.562L257.49 85.1651L261.295 87.5523L265.215 89.7116L269.226 91.6328L273.307 93.3077L277.434 94.7301L281.582 95.8961L285.727 96.8039L289.846 97.4538L293.912 97.8485L297.904 97.9926L301.797 97.893L305.568 97.5586L309.197 97.0002L312.661 96.2306L315.943 95.2645L319.023 94.118L321.885 92.8091L324.515 91.3567L326.899 89.7815L329.027 88.105L330.889 86.3495L332.478 84.5382L333.788 82.6948L334.819 80.8433L335.568 79.0078L336.037 77.2125L336.231 75.4811L336.154 73.8372L335.815 72.3035L335.225 70.9019L334.394 69.6534L333.337 68.5778L332.069 67.6936L330.607 67.0177L328.97 66.5655L327.178 66.3506L325.252 66.3849L323.215 66.678L321.088 67.2379L318.895 68.0701L316.661 69.1783L314.409 70.5637L312.164 72.2257L309.949 74.1611L307.789 76.365L305.706 78.8299L303.723 81.5466L301.862 84.5037L300.142 87.6882L298.583 91.0849L297.203 94.6773L296.018 98.4472L295.042 102.375L294.288 106.44L293.767 110.62L293.487 114.893L293.456 119.234L293.677 123.621L294.154 128.029L294.886 132.433L295.872 136.808L297.108 141.132L298.587 145.381L300.301 149.53L302.239 153.559L304.39 157.446L306.74 161.171L309.272 164.716L311.969 168.063L314.812 171.197L317.781 174.105L320.856 176.774L324.012 179.194L327.229 181.358L330.481 183.26L333.745 184.896L336.996 186.265L340.211 187.367L343.365 188.206L346.434 188.787L349.396 189.116L352.227 189.203L354.907 189.059L357.415 188.698L359.731 188.133L361.839 187.382L363.722 186.463L365.366 185.395L366.758 184.198L367.887 182.895L368.745 181.507L369.326 180.059L369.624 178.573L369.637 177.074L369.367 175.586L368.813 174.133L367.982 172.738L366.878 171.426L365.511 170.218L363.891 169.136L362.031 168.202L359.944 167.434L357.647 166.851L355.157 166.469L352.493 166.304L349.675 166.368L346.725 166.673L343.665 167.229L340.518 168.043L337.308 169.12L334.059 170.463L330.796 172.073L327.541 173.95L324.32 176.089L321.157 178.485L318.074 181.13L315.093 184.015L312.237 187.128L309.525 190.455L306.976 193.981L304.609 197.69L302.438 201.562L300.478 205.578L298.742 209.717L297.24 213.957L295.981 218.274L294.971 222.646L294.214 227.049L293.712 231.457L293.466 235.847L293.473 240.194L293.729 244.474L294.227 248.664L294.959 252.741L295.914 256.683L297.08 260.469L298.442 264.079L299.984 267.496L301.689 270.701L303.538 273.681L305.51 276.422L307.584 278.911L309.738 281.141L311.948 283.102L314.191 284.791L316.444 286.203L318.681 287.338L320.878 288.197L323.013 288.782L325.06 289.101L326.998 289.16L328.804 288.969L330.456 288.539L331.936 287.884L333.223 287.019L334.301 285.961L335.155 284.728L335.769 283.341L336.133 281.819L336.235 280.184L336.068 278.46L335.625 276.67L334.903 274.838L333.9 272.987L332.616 271.141L331.054 269.326L329.218 267.564L327.116 265.879L324.756 264.293L322.149 262.828L319.309 261.504L316.249 260.341L312.986 259.357L309.538 258.568L305.925 257.988L302.166 257.632L298.284 257.509L294.301 257.629L290.241 258L286.126 258.625L281.982 259.508L277.833 260.649L273.704 262.047L269.617 263.697L265.598 265.595L261.669 267.732L257.852 270.098L254.169 272.68L250.639 275.466L247.282 278.44L244.116 281.584L241.154 284.88L238.413 288.307L235.903 291.845L233.636 295.472L231.619 299.164L229.858 302.898L228.357 306.65L227.119 310.395L226.143 314.11L225.426 317.769L224.963 321.35L224.749 324.828L224.773 328.182L225.025 331.389L225.492 334.429L226.16 337.283L227.012 339.932L228.031 342.36L229.197 344.552L230.49 346.496L231.888 348.18L233.37 349.596L234.911 350.736L236.489 351.595L238.079 352.171L239.657 352.463L241.2 352.472L242.682 352.204L244.081 351.663L245.375 350.858L246.54 349.798L247.557 348.496L248.406 346.966L249.067 345.223L249.525 343.284L249.764 341.169L249.77 338.896L249.531 336.488L249.038 333.966L248.283 331.353L247.261 328.674L245.968 325.951L244.402 323.209L242.564 320.472L240.458 317.764L238.089 315.11L235.464 312.532L232.592 310.052L229.485 307.693L226.155 305.474L222.619 303.415L218.892 301.533L214.993 299.845L210.942 298.366L206.758 297.107L202.465 296.08L198.085 295.294L193.641 294.755L189.158 294.468L184.659 294.436L180.169 294.658L175.713 295.133L171.314 295.856L166.997 296.822L162.783 298.022L158.696 299.447L154.756 301.082L150.983 302.916L147.397 304.931L144.013 307.111L140.847 309.436L137.914 311.887L135.225 314.442L132.789 317.079L130.615 319.776L128.709 322.507L127.073 325.25L125.71 327.98L124.619 330.673L123.796 333.306L123.237 335.853L122.934 338.292L122.879 340.602L123.059 342.759L123.462 344.745L124.073 346.54L124.875 348.126L125.851 349.488L126.981 350.61L128.243 351.482L129.618 352.091L131.081 352.43L132.61 352.492L134.182 352.272L135.771 351.769L137.354 350.982L138.907 349.914L140.406 348.568L141.828 346.952L143.15 345.073L144.351 342.943L145.409 340.574L146.306 337.98L147.022 335.177L147.542 332.183L147.85 329.017L147.934 325.699L147.781 322.25L147.383 318.693L146.731 315.052L145.822 311.349L144.651 307.609L143.217 303.857L141.523 300.116L139.571 296.411L137.367 292.765L134.918 289.203L132.235 285.745L129.328 282.413L126.213 279.229L122.903 276.21L119.416 273.374L115.77 270.738L111.985 268.316L108.083 266.119L104.084 264.16L100.013 262.445L95.8919 260.982L91.7456 259.775L87.5982 258.826L83.474 258.135L79.3974 257.7L75.3923 257.517L71.4822 257.578L67.6899 257.876L64.0373 258.399L60.5453 259.136L57.2334 260.072L54.12 261.191L51.2219 262.475L48.5541 263.906L46.1299 265.463L43.9608 267.125L42.0562 268.869L40.4235 270.673L39.068 272.513L37.9929 274.365L37.1991 276.205L36.6854 278.008L36.4483 279.751L36.4824 281.411L36.78 282.963L37.3314 284.387L38.1249 285.662L39.147 286.766L40.3826 287.682L41.8146 288.392L43.4247 288.881L45.1933 289.134L47.0993 289.14L49.1208 288.889L51.2352 288.372L53.4189 287.584L55.6482 286.52L57.8989 285.178L60.1468 283.56L62.3678 281.668L64.5382 279.506L66.6348 277.083L68.635 274.405L70.5172 271.486L72.2607 268.336L73.8463 264.972L75.256 261.41L76.4733 257.667L77.4836 253.763L78.2737 249.719L78.8326 245.555L79.1512 241.296L79.2225 236.964L79.0415 232.582L78.6055 228.176L77.9137 223.77L76.9679 219.388L75.7718 215.054L74.3311 210.793L72.654 206.626L70.7505 202.576L68.6324 198.665L66.3136 194.913L63.8096 191.339L61.1377 187.959L58.3163 184.79L55.3656 181.845L52.3066 179.138L49.1614 176.677L45.9531 174.472L42.705 172.528L39.4414 170.849L36.1863 169.438L32.9641 168.293L29.7989 167.412L26.7146 166.791L23.7343 166.423L20.8808 166.298L18.1755 166.405L15.639 166.733L13.2907 167.267L11.1485 167.989L9.22873 168.883L7.54602 169.929L6.11329 171.106L4.94149 172.394L4.03963 173.77L3.4146 175.21L3.07121 176.692L3.0121 178.19L3.2377 179.681L3.7463 181.142L4.53399 182.547L5.59473 183.874L6.92039 185.1L8.5008 186.203L10.3239 187.163L12.3757 187.958L14.6405 188.572L17.1012 188.987L19.7388 189.188L22.5334 189.161L25.4637 188.895L28.5077 188.379L31.6421 187.607L34.8436 186.572L38.088 185.272L41.3511 183.704L44.6085 181.87L47.8362 179.772L51.0105 177.417L54.108 174.81L57.1062 171.963L59.9838 168.886L62.7201 165.591L65.2959 162.096L67.6935 158.415L69.8967 154.568L71.8909 150.573L73.6633 146.452L75.2031 142.227L76.5016 137.92L77.5519 133.555L78.3494 129.156L78.8916 124.747L79.1782 120.353L79.2112 115.997L78.9945 111.705L78.5343 107.499L77.8389 103.402L76.9185 99.4375L75.7855 95.6254L74.4537 91.9858L72.939 88.5373L71.2587 85.2971L69.4317 82.2805L67.4779 79.5011L65.4186 76.9708L63.2761 74.6995L61.0732 72.6948L58.8335 70.9625L56.5811 69.5062L54.34 68.3272L52.1344 67.4246L49.9884 66.7955L47.9255 66.4348L45.9688 66.3352L44.1407 66.4874L42.4623 66.8801L40.9541 67.5002L39.6348 68.3327L38.5222 69.3611L37.632 70.5672L36.9786 71.9316L36.5744 73.4336L36.43 75.0514L36.5537 76.7626L36.9521 78.5439L37.6294 80.3713L38.5877 82.2211L39.8271 84.0688L41.3452 85.8906L43.1378 87.6626L45.1981 89.3615L47.5177 90.9647L50.0859 92.4505L52.8902 93.798L55.9162 94.9878L59.1478 96.0016L62.5674 96.8229L66.1558 97.4366L69.8928 97.8294L73.7567 97.99L77.7252 97.909L81.775 97.5789L85.8823 96.9946L90.0231 96.1528L94.1728 95.0528L98.3072 93.6957L102.402 92.0849L106.434 90.226L110.379 88.1267L114.215 85.7967L117.921 83.2476L121.476 80.493L124.862 77.5482L128.06 74.4301L131.055 71.1572L133.832 67.7493L136.379 64.2273L138.686 60.6133L140.744 56.9301L142.546 53.2012L144.088 49.4507L145.368 45.7027L146.385 41.9817L147.144 38.3118L147.646 34.717L147.9 31.2208L147.913 27.8458L147.697 24.6139L147.263 21.5459L146.626 18.6614L145.802 15.9787L144.808 13.5143L143.664 11.2834L142.39 9.29916L141.007 7.57294L139.537 6.11413L138.003 4.93007L136.43 4.02596L134.84 3.40488L133.259 3.0677L131.709 3.01312L130.216 3.23767L128.801 3.73571L127.49 4.49954L126.302 5.51939L125.26 6.78354L124.384 8.27841L123.691 9.98868L123.2 11.8974L122.926 13.9861L122.882 16.2349L123.081 18.623L123.533 21.1283L124.245 23.7281L125.225 26.3988L126.475 29.1166L127.997 31.8572L129.791 34.5965L131.855 37.3102L134.183 39.9747L136.768 42.5666L139.601 45.0634L142.672 47.4434L145.967 49.6859L149.471 51.7716L153.169 53.6826L157.042 55.4022L161.07 56.9158L165.234 58.2103L169.511 59.2747L173.879 60.0997L178.314 60.6784L182.793 61.0057L187.291 61.0789L191.784 60.8973L196.247 60.4625L200.656 59.7783L204.989 58.8503L209.22 57.6868L213.329 56.2975L217.294 54.6945L221.094 52.8915L224.712 50.9041L228.129 48.7493L231.33 46.4458L234.301 44.0135L237.03 41.4735L239.507 38.8479L241.723 36.1596L243.672 33.4321L245.351 30.6892L246.757 27.9554L247.892 25.2547L248.757 22.6113L249.358 20.0489L249.701 17.5907L249.795 15.2593L249.652 13.0761L249.283 11.0617L248.704 9.23532L247.931 7.61477L246.982 6.21634L245.875 5.05464L244.632 4.14246L243.274 3.4907L241.823 3.10826L240.303 3.00198L238.737 3.17657L237.149 3.63458L235.563 4.37639L234.004 5.40017L232.495 6.70196L231.059 8.27562L229.719 10.113L228.498 12.2037L227.416 14.5357L226.492 17.095L225.746 19.8658L225.193 22.8307L224.85 25.9709L224.73 29.2663L224.845 32.6956L225.203 36.2367L225.814 39.8663L226.682 43.5609L227.812 47.2964L229.203 51.0484L230.856 54.7927L232.768 58.5051L234.932 62.1616L237.343 65.7392L239.989 69.2153L242.861 72.5682L245.944 75.7776L249.224 78.824L252.684 81.6898L256.306 84.3587L260.07 86.8161L263.955 89.0492L267.94 91.0472L272.001 92.8013L276.116 94.3047L280.26 95.5527L284.409 96.5427L288.538 97.2747L292.624 97.7502L296.642 97.9735L300.569 97.9507L304.381 97.69L308.058 97.2016L311.577 96.4978L314.918 95.5926L318.065 94.5017L320.998 93.2425L323.703 91.8337L326.167 90.2953L328.378 88.6487L330.325 86.9159L332.001 85.1198L333.401 83.284L334.521 81.4325L335.36 79.5892L335.918 77.7785L336.199 76.0242L336.207 74.35L335.951 72.7787L335.439 71.3327L334.684 70.0332L333.697 68.9005L332.494 67.9534L331.092 67.2094L329.509 66.6844L327.765 66.3925L325.879 66.3463L323.874 66.556L321.773 67.0302L319.599 67.7752L317.375 68.7952L315.126 70.0923L312.877 71.6664L310.65 73.5152L308.47 75.6342L306.36 78.0169L304.343 80.6545L302.44 83.5364L300.673 86.65L299.061 89.9809L297.622 93.5129L296.374 97.2283L295.329 101.108L294.503 105.132L293.907 109.277L293.55 113.523L293.439 117.845L293.579 122.22L293.974 126.624L294.625 131.032L295.531 135.419L296.688 139.762L298.09 144.037L299.73 148.221L301.598 152.29L303.683 156.225L305.971 160.003L308.446 163.608L311.093 167.019L313.892 170.223L316.823 173.204L319.866 175.95L322.999 178.451L326.199 180.697L329.442 182.683L332.705 184.404L335.963 185.858L339.192 187.045L342.368 187.968L345.467 188.63L348.465 189.038L351.341 189.201L354.071 189.13L356.636 188.836L359.015 188.334L361.191 187.641L363.147 186.773L364.869 185.75L366.342 184.592L367.556 183.32L368.502 181.957L369.171 180.525L369.56 179.049L369.664 177.552L369.484 176.057L369.02 174.591L368.276 173.175L367.259 171.834L365.975 170.59L364.434 169.466L362.649 168.482L360.632 167.659L358.4 167.015L355.97 166.568L353.359 166.332L350.588 166.322L347.678 166.549L344.65 167.024L341.529 167.755L338.336 168.748L335.097 170.006L331.835 171.531L328.575 173.323L325.341 175.379L322.157 177.694L319.046 180.261L316.03 183.071L313.132 186.112L310.372 189.373L307.769 192.837L305.342 196.49L303.107 200.312L301.079 204.284L299.27 208.387L297.693 212.597L296.355 216.892L295.265 221.249L294.427 225.645L293.844 230.054L293.517 234.452L293.444 238.815L293.621 243.119L294.043 247.341L294.702 251.456L295.587 255.443L296.687 259.281L297.988 262.95L299.475 266.43L301.13 269.704L302.935 272.757L304.87 275.575L306.914 278.146L309.044 280.459L311.239 282.507L313.475 284.283L315.727 285.783L317.971 287.006L320.184 287.953L322.341 288.625L324.419 289.028L326.394 289.169L328.244 289.056L329.948 288.701L331.484 288.116L332.835 287.316L333.982 286.318L334.908 285.139L335.6 283.798L336.045 282.317L336.231 280.716L336.151 279.018L335.796 277.246L335.164 275.425L334.25 273.577L333.056 271.727L331.582 269.9L329.832 268.118L327.814 266.406L325.535 264.786L323.006 263.28L320.238 261.909L317.246 260.693L314.046 259.65L310.656 258.797L307.093 258.149L303.378 257.721L299.533 257.522L295.579 257.564L291.541 257.854L287.441 258.398L283.304 259.199L279.154 260.257L275.016 261.574L270.913 263.145L266.87 264.964L262.909 267.026L259.054 269.32L255.326 271.835L251.746 274.558L248.332 277.473L245.103 280.565L242.074 283.815L239.261 287.202L236.677 290.708L234.331 294.309L232.234 297.982L230.391 301.706L228.807 305.454L227.485 309.204L226.426 312.931L225.626 316.611L225.083 320.219L224.791 323.733L224.74 327.128L224.921 330.385L225.321 333.48L225.926 336.395L226.722 339.111L227.689 341.611L228.811 343.88L230.066 345.905L231.433 347.673L232.891 349.174L234.415 350.403L235.984 351.352L237.573 352.018L239.157 352.4L240.714 352.5L242.218 352.319L243.646 351.864L244.976 351.142L246.184 350.162L247.251 348.936L248.155 347.477L248.878 345.8L249.402 343.922L249.712 341.861L249.794 339.636L249.634 337.268L249.223 334.78L248.553 332.194L247.616 329.533L246.409 326.821L244.93 324.083L243.179 321.341L241.158 318.622L238.872 315.948L236.327 313.343L233.533 310.83L230.499 308.43L227.239 306.164L223.767 304.052L220.099 302.112L216.253 300.361L212.247 298.814L208.104 297.483L203.843 296.382L199.488 295.518L195.062 294.9L190.589 294.532L186.092 294.418L181.597 294.559L177.127 294.954L172.708 295.599L168.362 296.489L164.113 297.615L159.983 298.969L155.994 300.539L152.166 302.311L148.518 304.27L145.068 306.4L141.831 308.681L138.823 311.094L136.054 313.618L133.537 316.232L131.279 318.912L129.287 321.635L127.565 324.377L126.115 327.114L124.937 329.821L124.029 332.475L123.387 335.052L123.003 337.528L122.87 339.882L122.977 342.09L123.31 344.132L123.857 345.99L124.6 347.644L125.523 349.079L126.605 350.28L127.828 351.232L129.169 351.926L130.607 352.352L132.117 352.503L133.678 352.373L135.264 351.96L136.852 351.263L138.417 350.284L139.936 349.026L141.385 347.496L142.741 345.7L143.983 343.648L145.089 341.354L146.039 338.83L146.814 336.092L147.399 333.157L147.776 330.043L147.932 326.771L147.856 323.361L147.537 319.837L146.967 316.22L146.14 312.534L145.052 308.803L143.702 305.052L142.091 301.305L140.22 297.586L138.096 293.919L135.724 290.327L133.114 286.833L130.278 283.459L127.227 280.226L123.977 277.152L120.545 274.257L116.947 271.555L113.205 269.063L109.337 266.794L105.367 264.758L101.316 262.964L97.2085 261.421L93.0676 260.132L88.9179 259.1L84.7837 258.327L80.6893 257.811L76.6589 257.548L72.716 257.532L68.8838 257.756L65.1843 258.209L61.6389 258.879L58.2676 259.753L55.0892 260.816L52.1207 262.049L49.378 263.435L46.8749 264.955L44.6234 266.585L42.6337 268.306L40.9137 270.094L39.4695 271.925L38.3049 273.775L37.4215 275.621L36.8188 277.439L36.4941 279.204L36.4426 280.892L36.6572 282.482L37.1288 283.949L37.8466 285.273L38.7975 286.434L39.9668 287.412L41.3382 288.189L42.8937 288.75L44.614 289.08L46.4785 289.166L48.4657 288.998L50.553 288.566L52.7172 287.865L54.9346 286.889L57.1811 285.636L59.4325 284.105L61.6647 282.3L63.8538 280.224L65.9764 277.883L68.0097 275.285L69.9317 272.441L71.7216 269.364L73.3595 266.066L74.8271 262.565L76.1074 258.878L77.1851 255.023L78.0466 251.021L78.6802 246.893L79.0763 242.662L79.227 238.35L79.1268 233.982L78.7721 229.581L78.1618 225.172L77.2966 220.78L76.1796 216.428L74.8161 212.141L73.2134 207.941L71.3807 203.852L69.3295 199.895L67.0731 196.09L64.6263 192.457L62.0059 189.013L59.23 185.775L56.3183 182.758L53.2914 179.974L50.1713 177.434L46.9805 175.146L43.7425 173.119L40.4812 171.355L37.2207 169.859L33.9854 168.629L30.7994 167.665L27.6868 166.961L24.6709 166.513L21.7746 166.312L19.0198 166.347L16.4274 166.606L14.0172 167.075L11.8075 167.739L9.81517 168.581L8.05546 169.58L6.54182 170.718L5.28584 171.973L4.29714 173.323L3.58331 174.746L3.14982 176.217L3 177.712L3.135 179.209L3.55377 180.681L4.25312 182.107L5.22767 183.461L6.46995 184.722L7.97044 185.867L9.71766 186.874L11.6982 187.724L13.897 188.397L16.2972 188.877L18.8806 189.148L21.6275 189.195L24.5169 189.006L27.5271 188.571L30.6353 187.881L33.818 186.931L37.0514 185.715L40.3111 184.232L43.573 182.483L46.8128 180.468L50.0066 178.195L53.131 175.667L56.1633 172.896L59.0816 169.89L61.865 166.663L64.494 163.23L66.9502 159.606L69.217 155.81L71.2792 151.86L73.1235 147.777L74.7385 143.583L76.1147 139.3L77.2446 134.951L78.123 130.56L78.7467 126.151L79.1146 121.75L79.228 117.379L79.0902 113.064L78.7068 108.828L78.0853 104.694L77.2354 100.685L76.1686 96.8218L74.8986 93.1252L73.4403 89.614L71.8108 86.3056L70.0284 83.2162L68.1127 80.3599L66.0847 77.7492L63.9662 75.3944L61.78 73.304L59.5495 71.4845L57.2985 69.94L55.0511 68.6726L52.8316 67.6822L50.664 66.9665L48.5722 66.521L46.5792 66.3392L44.7077 66.4123L42.9794 66.7297L41.4148 67.2789L40.0334 68.0455L38.8532 69.0133L37.8905 70.1649L37.1603 71.481L36.6755 72.9415L36.4472 74.5249L36.4847 76.2088L36.7951 77.9703L37.3832 79.7857L38.2519 81.6309L39.4019 83.482L40.8316 85.3146L42.5374 87.105L44.5132 88.8297L46.7513 90.4658L49.2416 91.9912L51.9722 93.385L54.9292 94.627L58.0972 95.6988L61.4589 96.5832L64.9957 97.2645L68.6876 97.729L72.5135 97.9647L76.4511 97.9615L80.4776 97.7114L84.5692 97.2085L88.702 96.449L92.8515 95.4312L96.9934 94.1557L101.103 92.6252L105.158 90.8446L109.133 88.8209L113.006 86.5632L116.756 84.0825L120.361 81.3918L123.803 78.5058L127.063 75.441L130.124 72.2154L132.972 68.8482L135.594 65.3602L137.978 61.7731L140.116 58.1094L142 54.3925L143.625 50.6462L144.988 46.8948L146.09 43.1625L146.93 39.4737L147.513 35.8525L147.846 32.3223L147.934 28.9063L147.79 25.6265L147.424 22.5041L146.85 19.5592L146.084 16.8103L145.142 14.2747L144.044 11.9679L142.809 9.9037L141.458 8.09418L140.013 6.5493L138.497 5.27705L136.934 4.28333L135.347 3.5719L133.76 3.14432L132.198 3L130.684 3.13614L129.242 3.54781L127.895 4.22795L126.666 5.16742L125.575 6.35514L124.644 7.7781L123.891 9.42153L123.334 11.269L122.989 13.3024L122.87 15.5025L122.99 17.8485L123.361 20.319L123.989 22.8912L124.883 25.5418L126.047 28.2472L127.483 30.9832L129.191 33.7256L131.169 36.45L133.413 39.1328L135.917 41.7503L138.672 44.2798L141.669 46.6992L144.894 48.9877L148.333 51.1254L151.971 53.0939L155.79 54.8761L159.771 56.4569L163.894 57.8225L168.138 58.9612L172.479 59.8634L176.896 60.5212L181.363 60.929L185.858 61.0833L190.355 60.9828L194.83 60.6283L199.259 60.023L203.618 59.1719L207.885 58.0824L212.035 56.7638L216.048 55.2275L219.903 53.4866L223.58 51.5561L227.063 49.4527L230.335 47.1945L233.381 44.801L236.188 42.293L238.746 39.6922L241.045 37.0213L243.08 34.3037L244.845 31.5631L246.339 28.8238L247.56 26.1099L248.51 23.4456L249.195 20.8549L249.619 18.361L249.791 15.9868L249.722 13.7542L249.424 11.6838L248.91 9.79556L248.197 8.1076L247.302 6.63675L246.244 5.39817L245.042 4.40523L243.718 3.66946L242.294 3.20039L240.794 3.00553L239.239 3.09028L237.656 3.45786L236.067 4.10936L234.496 5.04366L232.968 6.25745L231.507 7.74531L230.134 9.49967L228.873 11.5109L227.744 13.7676L226.768 16.2561L225.963 18.9613L225.347 21.8663L224.936 24.9528L224.744 28.201L224.782 31.5901L225.062 35.098L225.592 38.7019L226.378 42.3785L227.424 46.1035L228.732 49.853L230.302 53.6024L232.131 57.3275L234.216 61.0044L236.549 64.6096L239.121 68.1204L241.922 71.5148L244.94 74.7721L248.159 77.8724L251.564 80.7976L255.136 83.5309L258.857 86.0571L262.706 88.3629L266.661 90.4369L270.701 92.2695L274.801 93.8533L278.938 95.183L283.088 96.2554L287.226 97.0695L291.329 97.6264L295.371 97.9295L299.329 97.9842L303.181 97.7982L306.903 97.3812L310.474 96.7446L313.874 95.9019L317.085 94.8684L320.088 93.6608L322.867 92.2975L325.409 90.7981L327.702 89.1836L329.734 87.4758L331.497 85.6973L332.986 83.8716L334.195 82.0225L335.123 80.174L335.77 78.3503L336.139 76.5754L336.234 74.8732L336.061 73.2666L335.63 71.7784L334.95 70.43L334.035 69.242L332.9 68.2338L331.559 67.4233L330.032 66.8269L328.337 66.4594L326.494 66.3337L324.525 66.4609L322.452 66.85L320.298 67.5082L318.088 68.4403L315.844 69.649L313.592 71.1351L311.355 72.8967L309.157 74.9303L307.023 77.2298L304.974 79.7873L303.033 82.5927L301.22 85.634L299.557 88.8973L298.061 92.367L296.75 96.026L295.639 99.8556L294.742 103.836L294.071 107.945L293.637 112.161L293.447 116.462L293.507 120.822L293.821 125.22L294.39 129.629L295.215 134.025L296.292 138.385L297.617 142.684L299.182 146.899L300.979 151.008L302.996 154.987L305.221 158.818L307.638 162.48L310.232 165.954L312.985 169.226L315.876 172.279L318.886 175.102L321.993 177.681L325.174 180.009L328.406 182.079L331.665 183.885L334.928 185.424L338.168 186.696L341.364 187.702L344.49 188.447L347.523 188.935L350.439 189.175L353.218 189.177L355.838 188.953L358.278 188.516L360.521 187.881L362.549 187.067L364.347 186.092L365.901 184.974L367.198 183.736L368.23 182.4L368.988 180.987L369.467 179.523L369.662 178.029" stroke="#7A67C8" stroke-width="4"/>
</svg>
