<svg width="508" height="236" viewBox="0 0 508 236" fill="none" xmlns="http://www.w3.org/2000/svg">
<path fill-rule="evenodd" clip-rule="evenodd" d="M-166.219 111.452C-175.171 112.774 -183.573 114.687 -191.15 117.37C-191.975 117.666 -192.225 118.08 -192.3 118.258C-192.425 118.573 -192.375 118.869 -192.175 119.145C-192.05 119.323 -191.85 119.54 -191.425 119.678C-191.125 119.777 -190.35 119.856 -189.324 119.836C-187.574 119.816 -184.873 119.658 -183.573 119.658C-179.122 119.698 -174.671 119.678 -170.219 119.737C-156.041 119.934 -153.565 120.092 -135.336 119.974C-114.056 119.836 -92.7251 119.599 -71.4197 119.244C-139.137 122.203 -206.754 125.655 -274.02 128.87C-274.771 128.91 -275.346 129.423 -275.296 130.014C-275.271 130.626 -274.596 131.08 -273.846 131.04C-116.881 123.544 41.8087 114.707 199.973 114.135C207.775 114.273 215.552 114.411 223.304 114.549C270.141 115.417 317.002 116.463 363.789 118.08C379.018 118.613 394.247 119.205 409.5 119.757C414.002 119.915 418.528 120.072 423.054 120.23C426.705 120.349 436.107 120.783 437.432 120.802C438.633 120.822 438.933 119.974 438.958 119.935C439.033 119.658 438.983 119.343 438.683 119.047C438.608 118.968 438.408 118.751 437.958 118.652C437.883 118.652 437.533 118.613 436.807 118.554C399.198 116.127 361.489 114.451 323.704 113.385C328.78 113.425 333.857 113.445 338.933 113.484C378.068 113.721 417.302 114.569 456.412 113.484C465.314 113.247 474.242 112.971 483.119 112.636C489.095 112.419 504.474 112.695 506.65 112.182C507.65 111.965 507.875 111.413 507.9 111.137C507.925 110.821 507.85 110.466 507.4 110.15C507.2 109.993 506.575 109.736 505.399 109.539C467.015 102.97 422.104 104.824 383.019 102.99C276.867 97.9597 171.091 101.313 64.9642 104.371C-26.6338 107.014 -118.232 107.152 -209.78 110.742C-243.288 112.044 -277.846 110.545 -310.88 115.516C-311.63 115.634 -312.105 116.186 -311.98 116.778C-311.83 117.37 -311.105 117.765 -310.355 117.646C-277.471 112.695 -243.038 114.214 -209.654 112.912C-195.176 112.34 -180.697 111.867 -166.219 111.452ZM116.977 112.912C60.8883 112.222 4.79941 111.866 -51.3396 112.083C-89.8493 112.222 -145.963 106.442 -184.223 117.489C-183.948 117.489 -183.723 117.489 -183.523 117.489C-179.072 117.528 -174.621 117.488 -170.169 117.567C-156.016 117.765 -153.54 117.922 -135.361 117.804C-88.8743 117.488 -42.2625 116.699 4.19916 115.476C41.8336 114.49 79.4179 113.602 116.977 112.912ZM496.397 110.367C460.113 105.357 418.978 106.856 382.844 105.16C276.792 100.13 171.091 103.483 65.0643 106.541C17.6774 107.921 -29.6843 108.612 -77.0211 109.46C-67.9438 109.736 -59.2666 109.933 -51.3396 109.914C28.9054 109.598 109.125 110.446 189.37 111.788C239.208 111.196 289.045 110.979 338.958 111.295C378.068 111.551 417.227 112.38 456.337 111.314C465.214 111.078 474.117 110.801 482.994 110.466C486.02 110.367 491.496 110.387 496.397 110.367Z" fill="white"/>
</svg>
