<svg width="30" height="30" viewBox="0 0 30 30" fill="none" xmlns="http://www.w3.org/2000/svg">
<path d="M12.0783 10.9954C11.1688 9.77145 10.6699 8.03623 10.6699 6.11286C10.6699 3.28047 12.5077 1.98047 15.0033 1.98047C17.6032 1.98047 19.3366 3.28047 19.3366 6.11286C19.3366 8.04012 18.8066 9.77666 17.959 10.9954L15.6504 14.795C15.4122 15.1872 14.5964 15.1866 14.3593 14.7941L12.0783 10.9954Z" fill="#F9D622" fill-opacity="0.9"/>
<path d="M10.3595 16.4232C8.91442 16.9099 7.10996 16.8481 5.28073 16.2538C2.58696 15.3785 1.91849 13.229 2.68966 10.8556C3.4931 8.38283 5.26511 7.13604 7.95887 8.0113C9.79181 8.60685 11.2796 9.6475 12.1767 10.8303L15.077 14.2C15.3763 14.5477 15.1237 15.3234 14.6772 15.4276L10.3595 16.4232Z" fill="#F9D622" fill-opacity="0.9"/>
<path d="M15.0393 20.0737C15.0557 21.5984 14.4394 23.2955 13.3088 24.8515C11.644 27.143 9.3931 27.1145 7.37414 25.6476C5.27071 24.1194 4.63252 22.0488 6.29736 19.7574C7.43018 18.1982 8.87964 17.1048 10.2817 16.6171L14.3828 14.9C14.806 14.7228 15.4657 15.2028 15.4268 15.6596L15.0393 20.0737Z" fill="#F9D622" fill-opacity="0.9"/>
<path d="M19.8255 16.534C21.2806 16.9896 22.7042 18.1002 23.8347 19.6562C25.4996 21.9477 24.7769 24.0796 22.7579 25.5465C20.6545 27.0747 18.4881 27.0418 16.8232 24.7504C15.6904 23.1912 15.0985 21.4748 15.0679 19.9906L14.7022 15.5597C14.6644 15.1024 15.3247 14.6233 15.7472 14.8015L19.8255 16.534Z" fill="#F9D622" fill-opacity="0.9"/>
<path d="M17.9123 10.8759C18.7953 9.63275 20.2914 8.62206 22.1206 8.02771C24.8144 7.15245 26.6187 8.49855 27.3899 10.872C28.1933 13.3447 27.4926 15.3949 24.7988 16.2702C22.9659 16.8658 21.1505 16.8984 19.7295 16.4688L15.4025 15.4474C14.9559 15.342 14.7044 14.5659 15.0043 14.2192L17.9123 10.8759Z" fill="#F9D622" fill-opacity="0.9"/>
<g style="mix-blend-mode:multiply">
<path d="M12.4897 14.1268C12.0182 15.5129 12.7597 17.0188 14.1458 17.4902C15.5319 17.9617 17.0378 17.2202 17.5092 15.8341C17.9807 14.448 17.2392 12.9421 15.8531 12.4707C14.467 11.9992 12.9611 12.7407 12.4897 14.1268Z" fill="#F9D622" fill-opacity="0.9"/>
<path fill-rule="evenodd" clip-rule="evenodd" d="M4.89631 14.6767L24.7768 14.9489L24.7723 15.2802L4.89177 15.008L4.89631 14.6767Z" fill="#F9D622" fill-opacity="0.9"/>
<path d="M24.9334 15.6138C24.6589 15.6101 24.4394 15.3845 24.4432 15.11C24.4469 14.8355 24.6725 14.6161 24.947 14.6198C25.2215 14.6236 25.441 14.8491 25.4372 15.1236C25.4335 15.3981 25.2079 15.6176 24.9334 15.6138Z" fill="#F9D622" fill-opacity="0.9"/>
<path d="M5.0529 15.3416C4.77841 15.3378 4.55894 15.1123 4.5627 14.8378C4.56646 14.5633 4.79202 14.3438 5.06652 14.3476C5.34101 14.3513 5.56048 14.5769 5.55672 14.8514C5.55296 15.1259 5.3274 15.3454 5.0529 15.3416Z" fill="#F9D622" fill-opacity="0.9"/>
<path fill-rule="evenodd" clip-rule="evenodd" d="M7.00466 8.79593L22.9283 20.7016L22.7299 20.967L6.80623 9.06133L7.00466 8.79593Z" fill="#F9D622" fill-opacity="0.9"/>
<path d="M22.6641 21.3316C22.4443 21.1673 22.3993 20.8558 22.5637 20.6359C22.7281 20.416 23.0396 20.3711 23.2594 20.5355C23.4793 20.6998 23.5243 21.0113 23.3599 21.2312C23.1955 21.451 22.884 21.496 22.6641 21.3316Z" fill="#F9D622" fill-opacity="0.9"/>
<path d="M6.7405 9.42593C6.52064 9.26155 6.47567 8.95006 6.64006 8.7302C6.80444 8.51034 7.11593 8.46537 7.33579 8.62975C7.55565 8.79414 7.60062 9.10563 7.43624 9.32548C7.27185 9.54534 6.96036 9.59032 6.7405 9.42593Z" fill="#F9D622" fill-opacity="0.9"/>
<path fill-rule="evenodd" clip-rule="evenodd" d="M12.1669 5.2776L18.0514 24.2692L17.7349 24.3673L11.8504 5.37568L12.1669 5.2776Z" fill="#F9D622" fill-opacity="0.9"/>
<path d="M17.4674 24.6236C17.3862 24.3614 17.5329 24.083 17.7951 24.0017C18.0573 23.9205 18.3358 24.0672 18.417 24.3294C18.4983 24.5916 18.3516 24.87 18.0893 24.9513C17.8271 25.0325 17.5487 24.8858 17.4674 24.6236Z" fill="#F9D622" fill-opacity="0.9"/>
<path d="M11.5829 5.63201C11.5017 5.3698 11.6484 5.09136 11.9106 5.01011C12.1728 4.92886 12.4513 5.07557 12.5325 5.33779C12.6138 5.60001 12.4671 5.87844 12.2048 5.95969C11.9426 6.04094 11.6642 5.89423 11.5829 5.63201Z" fill="#F9D622" fill-opacity="0.9"/>
<path fill-rule="evenodd" clip-rule="evenodd" d="M18.4114 5.46546L12.009 24.2888L11.6953 24.1821L18.0976 5.35876L18.4114 5.46546Z" fill="#F9D622" fill-opacity="0.9"/>
<path d="M11.3282 24.2323C11.4166 23.9724 11.699 23.8333 11.9589 23.9217C12.2188 24.0101 12.3578 24.2925 12.2694 24.5524C12.181 24.8123 11.8987 24.9513 11.6388 24.8629C11.3789 24.7745 11.2398 24.4922 11.3282 24.2323Z" fill="#F9D622" fill-opacity="0.9"/>
<path d="M17.7306 5.40891C17.819 5.14902 18.1013 5.00999 18.3612 5.09839C18.6211 5.18679 18.7601 5.46913 18.6717 5.72903C18.5833 5.98893 18.301 6.12795 18.0411 6.03956C17.7812 5.95116 17.6422 5.66881 17.7306 5.40891Z" fill="#F9D622" fill-opacity="0.9"/>
<path fill-rule="evenodd" clip-rule="evenodd" d="M23.3527 9.28786L7.10907 20.7531L6.91798 20.4824L23.1617 9.01713L23.3527 9.28786Z" fill="#F9D622" fill-opacity="0.9"/>
<path d="M6.59153 20.3072C6.81581 20.1489 7.12595 20.2023 7.28425 20.4266C7.44255 20.6509 7.38907 20.961 7.16479 21.1194C6.94051 21.2777 6.63037 21.2242 6.47207 20.9999C6.31377 20.7756 6.36725 20.4655 6.59153 20.3072Z" fill="#F9D622" fill-opacity="0.9"/>
<path d="M22.8352 8.84195C23.0595 8.68365 23.3696 8.73713 23.5279 8.96141C23.6862 9.18569 23.6327 9.49583 23.4085 9.65413C23.1842 9.81243 22.874 9.75895 22.7157 9.53467C22.5574 9.31039 22.6109 9.00025 22.8352 8.84195Z" fill="#F9D622" fill-opacity="0.9"/>
<path fill-rule="evenodd" clip-rule="evenodd" d="M25.1036 15.2847L5.22316 15.0125L5.22769 14.6811L25.1082 14.9534L25.1036 15.2847Z" fill="#F9D622" fill-opacity="0.9"/>
<path d="M5.06652 14.3476C5.34101 14.3513 5.56048 14.5769 5.55672 14.8514C5.55296 15.1259 5.3274 15.3454 5.0529 15.3416C4.77841 15.3378 4.55894 15.1123 4.5627 14.8378C4.56646 14.5633 4.79202 14.3438 5.06652 14.3476Z" fill="#F9D622" fill-opacity="0.9"/>
<path d="M24.947 14.6198C25.2215 14.6236 25.441 14.8491 25.4372 15.1236C25.4335 15.3981 25.2079 15.6176 24.9334 15.6138C24.6589 15.6101 24.4394 15.3845 24.4432 15.11C24.4469 14.8355 24.6725 14.6161 24.947 14.6198Z" fill="#F9D622" fill-opacity="0.9"/>
<path fill-rule="evenodd" clip-rule="evenodd" d="M22.9953 21.1654L7.07165 9.25973L7.27008 8.99434L23.1937 20.9L22.9953 21.1654Z" fill="#F9D622" fill-opacity="0.9"/>
<path d="M7.33579 8.62975C7.55565 8.79414 7.60062 9.10563 7.43624 9.32548C7.27185 9.54534 6.96036 9.59032 6.7405 9.42593C6.52064 9.26155 6.47567 8.95006 6.64006 8.7302C6.80444 8.51034 7.11593 8.46537 7.33579 8.62975Z" fill="#F9D622" fill-opacity="0.9"/>
<path d="M23.2594 20.5355C23.4793 20.6998 23.5243 21.0113 23.3599 21.2312C23.1955 21.451 22.884 21.496 22.6641 21.3316C22.4443 21.1673 22.3993 20.8558 22.5637 20.6359C22.7281 20.416 23.0396 20.3711 23.2594 20.5355Z" fill="#F9D622" fill-opacity="0.9"/>
<path fill-rule="evenodd" clip-rule="evenodd" d="M17.833 24.6838L11.9485 5.69225L12.265 5.59417L18.1495 24.5858L17.833 24.6838Z" fill="#F9D622" fill-opacity="0.9"/>
<path d="M12.5325 5.33779C12.6138 5.60001 12.4671 5.87844 12.2048 5.95969C11.9426 6.04094 11.6642 5.89423 11.5829 5.63201C11.5017 5.3698 11.6484 5.09136 11.9106 5.01011C12.1728 4.92886 12.4513 5.07557 12.5325 5.33779Z" fill="#F9D622" fill-opacity="0.9"/>
<path d="M18.417 24.3294C18.4983 24.5916 18.3516 24.87 18.0893 24.9513C17.8271 25.0325 17.5487 24.8858 17.4674 24.6236C17.3862 24.3614 17.5329 24.083 17.7951 24.0017C18.0573 23.9205 18.3358 24.0672 18.417 24.3294Z" fill="#F9D622" fill-opacity="0.9"/>
<path fill-rule="evenodd" clip-rule="evenodd" d="M11.5886 24.4959L17.9909 5.67256L18.3046 5.77927L11.9023 24.6026L11.5886 24.4959Z" fill="#F9D622" fill-opacity="0.9"/>
<path d="M18.6717 5.72903C18.5833 5.98893 18.301 6.12795 18.0411 6.03956C17.7812 5.95116 17.6422 5.66881 17.7306 5.40891C17.819 5.14902 18.1013 5.00999 18.3612 5.09839C18.6211 5.18679 18.7601 5.46913 18.6717 5.72903Z" fill="#F9D622" fill-opacity="0.9"/>
<path d="M12.2694 24.5524C12.181 24.8123 11.8987 24.9513 11.6388 24.8629C11.3789 24.7745 11.2398 24.4922 11.3282 24.2323C11.4166 23.9724 11.699 23.8333 11.9589 23.9217C12.2188 24.0101 12.3578 24.2925 12.2694 24.5524Z" fill="#F9D622" fill-opacity="0.9"/>
<path fill-rule="evenodd" clip-rule="evenodd" d="M6.64721 20.6735L22.8909 9.20828L23.082 9.47901L6.83829 20.9442L6.64721 20.6735Z" fill="#F9D622" fill-opacity="0.9"/>
<path d="M23.4085 9.65413C23.1842 9.81243 22.874 9.75895 22.7157 9.53467C22.5574 9.31039 22.6109 9.00025 22.8352 8.84195C23.0595 8.68365 23.3696 8.73713 23.5279 8.96141C23.6862 9.18569 23.6327 9.49583 23.4085 9.65413Z" fill="#F9D622" fill-opacity="0.9"/>
<path d="M7.16479 21.1194C6.94051 21.2777 6.63037 21.2242 6.47207 20.9999C6.31377 20.7756 6.36725 20.4655 6.59153 20.3072C6.81581 20.1489 7.12595 20.2023 7.28425 20.4266C7.44255 20.6509 7.38907 20.961 7.16479 21.1194Z" fill="#F9D622" fill-opacity="0.9"/>
<circle r="1.32549" transform="matrix(-0.946736 -0.32201 -0.32201 0.946736 14.9999 14.9804)" fill="#F9D622" fill-opacity="0.9"/>
</g>
</svg>
