<svg width="18" height="18" viewBox="0 0 18 18" fill="none" xmlns="http://www.w3.org/2000/svg">
<path fill-rule="evenodd" clip-rule="evenodd" d="M2.29208 7.96138C3.09516 7.67523 3.94025 7.29491 4.59195 6.74429C5.36595 6.09029 5.68072 5.248 5.89211 4.36138C6.16349 3.22231 6.27193 2.00891 6.60101 0.867986C6.72285 0.444294 6.95734 0.284137 7.05795 0.21306C7.31226 0.0335215 7.56932 -0.014469 7.81116 0.00353096C8.09778 0.0243002 8.49149 0.132754 8.75041 0.613216C8.78733 0.681985 8.83532 0.78676 8.86763 0.930298C8.89117 1.03553 8.9064 1.3646 8.93132 1.50029C8.99363 1.83445 9.04578 2.16861 9.09471 2.50461C9.25763 3.62292 9.35133 4.57275 9.86595 5.60014C10.5643 6.99491 11.264 7.84829 12.2129 8.22629C13.1304 8.59183 14.2275 8.52308 15.6292 8.23646C15.7626 8.20415 15.8945 8.17645 16.0252 8.15384C16.6432 8.04584 17.2339 8.45153 17.3553 9.06722C17.4767 9.68246 17.084 10.282 16.4715 10.4172C16.3436 10.4454 16.2176 10.4721 16.093 10.4966C14.1989 10.9655 12.0061 12.6391 10.7318 14.1045C10.339 14.5563 9.76394 15.8195 9.17733 16.6254C8.74441 17.2198 8.25794 17.6117 7.84948 17.7501C7.57578 17.8434 7.34502 17.8291 7.15441 17.782C6.87748 17.7137 6.64765 17.5637 6.47134 17.3251C6.37534 17.1944 6.28624 17.0195 6.24378 16.7961C6.22347 16.6886 6.22118 16.4154 6.22164 16.2917C6.1021 15.8805 5.95579 15.4789 5.84918 15.064C5.59487 14.074 5.09594 13.4472 4.50332 12.6192C3.94902 11.8443 3.35365 11.3574 2.48088 10.9688C2.36734 10.9411 1.45119 10.7168 1.12765 10.588C0.655032 10.3992 0.429789 10.0831 0.348097 9.91275C0.209174 9.62383 0.194879 9.37138 0.222571 9.16092C0.263648 8.8503 0.403033 8.58446 0.650418 8.36985C0.803649 8.23646 1.03257 8.10675 1.33904 8.04352C1.5758 7.99414 2.20393 7.96553 2.29208 7.96138ZM7.66671 6.34783C7.70917 6.44244 7.7544 6.53753 7.8024 6.63353C8.82517 8.6763 9.96886 9.81676 11.359 10.3701L11.4056 10.3881C10.4756 11.0786 9.63378 11.8503 8.99039 12.5901C8.72547 12.8948 8.37471 13.5275 7.99579 14.1765C7.65148 13.0572 7.08841 12.2662 6.38041 11.2762C5.83948 10.5206 5.27272 9.952 4.57625 9.48862C5.11672 9.21124 5.63225 8.88631 6.08133 8.50692C6.82902 7.87508 7.32332 7.14306 7.66671 6.34783Z" fill="#475150"/>
</svg>
