<svg width="108" height="69" viewBox="0 0 108 69" fill="none" xmlns="http://www.w3.org/2000/svg">
<g opacity="0.85">
<g clip-path="url(#clip0_113_493)">
<path d="M34.1602 34.6502C34.1172 34.2965 33.7205 33.9858 33.3887 34.0951L29.4308 34.8107L26.5681 31.9282C26.458 31.8174 26.3698 31.7729 26.2152 31.7502C25.8177 31.6605 25.4633 31.9244 25.3735 32.3219L24.8515 36.3196L21.2435 38.0971C21.0444 38.1627 20.9336 38.2728 20.9109 38.4274C20.7329 38.7803 20.8642 39.1785 21.2171 39.3565L24.8129 41.1146L25.3957 45.1162C25.4395 45.2489 25.4832 45.3817 25.5933 45.4925C25.9017 45.7587 26.3437 45.7603 26.6099 45.4518L29.4042 42.5446L33.3793 43.2212C33.4676 43.2657 33.6003 43.222 33.733 43.1783C33.7994 43.1564 33.7994 43.1564 33.8658 43.1345C34.1757 42.9588 34.3319 42.5395 34.1343 42.1632L32.2241 38.5989L34.0704 35.0477C34.1813 34.9376 34.2039 34.783 34.1602 34.6502Z" fill="#464646"/>
</g>
<g clip-path="url(#clip1_113_493)">
<path d="M52.2852 21.4544C52.2422 21.1007 51.8455 20.79 51.5137 20.8993L47.5558 21.6149L44.6931 18.7324C44.583 18.6216 44.4948 18.5771 44.3402 18.5544C43.9427 18.4647 43.5883 18.7286 43.4985 19.1261L42.9765 23.1238L39.3685 24.9013C39.1694 24.9669 39.0586 25.077 39.0359 25.2316C38.8579 25.5845 38.9892 25.9827 39.3421 26.1607L42.9379 27.9188L43.5207 31.9204C43.5645 32.0531 43.6082 32.1859 43.7183 32.2967C44.0267 32.5629 44.4687 32.5645 44.7349 32.256L47.5292 29.3488L51.5043 30.0254C51.5926 30.0699 51.7253 30.0262 51.858 29.9825C51.9244 29.9606 51.9244 29.9606 51.9908 29.9387C52.3007 29.763 52.4569 29.3437 52.2593 28.9674L50.3491 25.4031L52.1954 21.8519C52.3063 21.7418 52.3289 21.5872 52.2852 21.4544Z" fill="#464646"/>
</g>
<g clip-path="url(#clip2_113_493)">
<path d="M74.2441 15.0213C74.2012 14.6676 73.8045 14.3569 73.4726 14.4662L69.5148 15.1818L66.6521 12.2993C66.542 12.1884 66.4537 12.1439 66.2991 12.1213C65.9017 12.0316 65.5472 12.2955 65.4575 12.6929L64.9355 16.6907L61.3275 18.4682C61.1284 18.5338 61.0176 18.6439 60.9949 18.7985C60.8169 19.1514 60.9481 19.5496 61.3011 19.7276L64.8969 21.4857L65.4797 25.4873C65.5234 25.62 65.5672 25.7527 65.6773 25.8636C65.9857 26.1298 66.4277 26.1314 66.6939 25.8229L69.4882 22.9157L73.4633 23.5923C73.5515 23.6368 73.6843 23.5931 73.817 23.5493C73.8834 23.5275 73.8834 23.5275 73.9497 23.5056C74.2597 23.3299 74.4158 22.9106 74.2183 22.5343L72.3081 18.97L74.1544 15.4188C74.2652 15.3087 74.2879 15.154 74.2441 15.0213Z" fill="#464646"/>
</g>
<g clip-path="url(#clip3_113_493)">
<path d="M97.6338 12.9324C97.5908 12.5787 97.1941 12.268 96.8623 12.3774L92.9044 13.0929L90.0417 10.2104C89.9316 10.0996 89.8434 10.0551 89.6888 10.0325C89.2914 9.9427 88.9369 10.2066 88.8471 10.6041L88.3251 14.6019L84.7172 16.3793C84.5181 16.4449 84.4072 16.555 84.3846 16.7096C84.2066 17.0626 84.3378 17.4608 84.6907 17.6388L88.2865 19.3968L88.8694 23.3984C88.9131 23.5311 88.9568 23.6639 89.0669 23.7747C89.3754 24.041 89.8173 24.0425 90.0835 23.7341L92.8778 20.8269L96.853 21.5035C96.9412 21.548 97.0739 21.5042 97.2067 21.4605C97.273 21.4386 97.273 21.4386 97.3394 21.4167C97.6494 21.241 97.8055 20.8217 97.6079 20.4454L95.6977 16.8812L97.544 13.3299C97.6549 13.2198 97.6775 13.0652 97.6338 12.9324Z" fill="#464646"/>
</g>
<g clip-path="url(#clip4_113_493)">
<path d="M23.9668 54.8643C23.9238 54.5106 23.5271 54.1999 23.1953 54.3092L19.2374 55.0248L16.3747 52.1423C16.2646 52.0315 16.1764 51.987 16.0218 51.9643C15.6244 51.8746 15.2699 52.1385 15.1801 52.536L14.6581 56.5338L11.0502 58.3112C10.8511 58.3768 10.7402 58.4869 10.7176 58.6415C10.5396 58.9945 10.6708 59.3927 11.0237 59.5706L14.6195 61.3287L15.2024 65.3303C15.2461 65.463 15.2898 65.5958 15.3999 65.7066C15.7084 65.9729 16.1503 65.9744 16.4166 65.6659L19.2108 62.7587L23.186 63.4353C23.2742 63.4798 23.4069 63.4361 23.5397 63.3924C23.606 63.3705 23.606 63.3705 23.6724 63.3486C23.9824 63.1729 24.1385 62.7536 23.9409 62.3773L22.0307 58.8131L23.877 55.2618C23.9879 55.1517 24.0105 54.9971 23.9668 54.8643Z" fill="#464646"/>
</g>
</g>
<defs>
<clipPath id="clip0_113_493">
<rect width="16.7705" height="16.7705" fill="white" transform="translate(17.3506 32.7583) rotate(-18.2376)"/>
</clipPath>
<clipPath id="clip1_113_493">
<rect width="16.7705" height="16.7705" fill="white" transform="translate(35.4756 19.5625) rotate(-18.2376)"/>
</clipPath>
<clipPath id="clip2_113_493">
<rect width="16.7705" height="16.7705" fill="white" transform="translate(57.4346 13.1294) rotate(-18.2376)"/>
</clipPath>
<clipPath id="clip3_113_493">
<rect width="16.7705" height="16.7705" fill="white" transform="translate(80.8242 11.0405) rotate(-18.2376)"/>
</clipPath>
<clipPath id="clip4_113_493">
<rect width="16.7705" height="16.7705" fill="white" transform="translate(7.15723 52.9724) rotate(-18.2376)"/>
</clipPath>
</defs>
</svg>
