<svg width="100" height="27" viewBox="0 0 100 27" fill="none" xmlns="http://www.w3.org/2000/svg">
<g clip-path="url(#clip0_107_567)">
<path d="M3.10401 18.8567L0.0517578 7.66212H2.05394L4.39909 16.2602L6.91247 7.66138L8.77884 7.66212L11.301 16.3058L13.6567 7.66424L15.6588 7.66138L12.6053 18.8547L10.2845 18.8524L7.84642 10.4924L5.40601 18.8545L3.10401 18.8567Z" fill="#D326BA"/>
<path d="M17.04 7.66791H18.9459V18.8494H17.04V7.66791Z" fill="#D326BA"/>
<path d="M23.0198 17.0955H27.6597V18.8494H21.1533V7.66791H23.0198V17.0955Z" fill="#D326BA"/>
<path d="M33.5232 7.6808C35.0873 7.6808 36.3886 8.22248 37.4138 9.29291C38.4522 10.3633 38.978 11.6917 38.978 13.2651C38.978 14.8257 38.4522 16.154 37.4138 17.2373C36.3886 18.3078 35.0873 18.8494 33.5232 18.8494H29.041V7.66791H33.5232V7.6808ZM33.5232 17.1084C34.601 17.1084 35.4816 16.7473 36.1389 16.0251C36.8224 15.3028 37.1641 14.3743 37.1641 13.278C37.1641 12.156 36.8224 11.2532 36.1389 10.531C35.4685 9.80876 34.5878 9.44766 33.5232 9.44766H30.9206V17.1084H33.5232Z" fill="#D326BA"/>
<path d="M49.0326 15.6552C49.0326 16.5713 48.7043 17.3326 48.0338 17.9391C47.3634 18.5456 46.5747 18.8552 45.6022 18.8552H40.7256V7.66791H45.2472C46.1805 7.66791 46.9688 7.97761 47.613 8.55826C48.2705 9.1518 48.5859 9.88732 48.5859 10.7647C48.5859 11.7454 48.1913 12.4938 47.4293 13.0487C48.428 13.5648 49.0326 14.4939 49.0326 15.6552ZM42.6051 9.397V12.339H45.2601C46.0884 12.339 46.7193 11.6938 46.7193 10.868C46.7193 10.0421 46.0884 9.397 45.2601 9.397H42.6051ZM45.6151 17.1262C46.4826 17.1262 47.1663 16.4423 47.1663 15.5649C47.1663 14.6874 46.4826 14.0035 45.6151 14.0035H42.6051V17.1391H45.6151V17.1262Z" fill="#D326BA"/>
<path d="M52.6729 17.1004H57.7204V18.8552H50.8066V7.66791H57.6416V9.42278H52.6729V12.3261H57.2341V14.068H52.6729V17.1004Z" fill="#D326BA"/>
<path d="M65.8967 18.8552L63.4779 14.7777H61.2696V18.8552H59.4033V7.66791H63.9642C64.9896 7.66791 65.8571 8.01629 66.5537 8.72598C67.2633 9.40989 67.6317 10.2615 67.6317 11.268C67.6317 12.6874 66.7246 13.9906 65.3708 14.5068L67.96 18.8552H65.8967ZM61.2696 9.39696V13.139H63.9512C64.95 13.139 65.7387 12.3132 65.7387 11.268C65.7387 10.2357 64.9371 9.39696 63.9512 9.39696H61.2696Z" fill="#D326BA"/>
<path d="M75.8726 18.8552L73.4672 14.7756H71.2588V18.8552H69.3926V7.66208H73.9534C74.9788 7.66208 75.8463 8.01067 76.543 8.72073C77.2526 9.40497 77.6209 10.257 77.6209 11.264C77.6209 12.6842 76.7138 13.9881 75.3601 14.5045L77.9492 18.8552H75.8726ZM71.2588 9.39204V13.136H73.9405C74.9392 13.136 75.728 12.3097 75.728 11.264C75.728 10.2312 74.9263 9.39204 73.9405 9.39204H71.2588Z" fill="#D326BA"/>
<path d="M79.3164 7.66336H81.1831V18.8553H79.3164V7.66336Z" fill="#D326BA"/>
<path d="M85.2583 17.1004H90.3058V18.8552H83.3916V7.66791H90.2266V9.42278H85.2583V12.3261H89.8191V14.068H85.2583V17.1004Z" fill="#D326BA"/>
<path d="M91.6064 16.3088L93.2231 15.3803C93.6831 16.6441 94.6164 17.2632 96.049 17.2632C97.4685 17.2632 98.1652 16.6699 98.1652 15.793C98.1652 15.3287 97.9681 14.9934 97.6002 14.7612C97.2319 14.5162 96.5485 14.2453 95.576 13.9616C94.4848 13.6392 93.946 13.4328 93.1835 12.9428C92.4477 12.4269 92.0794 11.6917 92.0794 10.6858C92.0794 9.69275 92.4344 8.91897 93.1573 8.33861C93.8673 7.74532 94.7348 7.46161 95.7469 7.46161C97.574 7.46161 98.9802 8.39018 99.7165 9.92489L98.139 10.8148C97.6656 9.78304 96.864 9.25425 95.7469 9.25425C94.6556 9.25425 93.959 9.79593 93.959 10.6471C93.959 11.4725 94.511 11.8594 96.2594 12.3882C96.6931 12.5301 97.0085 12.6333 97.2056 12.7106C97.416 12.7751 97.6919 12.8912 98.0469 13.033C98.4152 13.1749 98.7044 13.3426 98.8752 13.4844C99.4798 13.9487 100.124 14.7096 100.045 15.7801C100.045 16.786 99.6769 17.5985 98.9277 18.1917C98.1915 18.785 97.219 19.0688 96.0098 19.0688C93.8015 19.0559 92.1977 18.0241 91.6064 16.3088Z" fill="#D326BA"/>
</g>
<defs>
<clipPath id="clip0_107_567">
<rect width="100" height="26.5306" fill="white" transform="translate(0 -0.00012207)"/>
</clipPath>
</defs>
</svg>
