<svg width="112" height="20" viewBox="0 0 112 20" fill="none" xmlns="http://www.w3.org/2000/svg">
<g clip-path="url(#clip0_107_580)">
<path d="M99.7049 6.21633C102.33 6.21633 104.955 6.21633 107.583 6.21633C107.583 6.85478 107.583 7.49324 107.583 8.13169H104.815V16.4785H102.47V8.12808H99.7014C99.7014 7.48844 99.7014 6.84999 99.7014 6.21272L99.7049 6.21633ZM88.3649 6.23797C89.1489 6.18387 89.9364 6.23797 90.7274 6.21994C89.6564 7.80705 88.5189 9.35089 87.4409 10.9308C88.6379 12.8065 89.9574 14.6136 91.1894 16.4749H88.5154C87.3674 14.7868 86.1949 13.1167 85.0364 11.425C85.0364 13.1059 85.0364 14.7832 85.0364 16.4749C84.2489 16.4749 83.4614 16.4749 82.6774 16.4749C82.6774 13.0554 82.6774 9.62142 82.6774 6.21633C83.4614 6.21633 84.2454 6.21633 85.0294 6.21633C85.0294 7.79262 85.0294 9.36892 85.0294 10.9452C86.1354 9.37614 87.2239 7.79623 88.3474 6.23797H88.3649ZM94.1259 8.43829C93.6499 8.97214 93.5869 9.73324 93.5309 10.4222H96.8349C96.8104 9.61781 96.7999 8.61865 96.0684 8.13169C95.7573 7.95188 95.3968 7.88435 95.0443 7.9399C94.6919 7.99549 94.3674 8.1709 94.1224 8.43829H94.1259ZM91.9454 7.83591C92.2286 7.35844 92.6122 6.9525 93.0675 6.64788C93.5232 6.34323 94.0391 6.14772 94.5774 6.07565C95.6061 5.88101 96.668 6.07028 97.5734 6.6095C98.2377 7.08336 98.7165 7.78534 98.9244 8.58979C99.2744 9.75849 99.2149 10.9993 99.2219 12.1969C97.3249 12.1969 95.4279 12.1969 93.5309 12.1969C93.5974 12.9183 93.7129 13.7191 94.2764 14.2205C94.8399 14.7218 95.6764 14.7868 96.4149 14.729C97.369 14.6325 98.2906 14.3196 99.1134 13.8128C99.1134 14.4693 99.1134 15.1294 99.1134 15.7859C97.8349 16.5406 96.346 16.8278 94.8889 16.6011C94.3538 16.5496 93.8337 16.3895 93.3584 16.1301C92.8834 15.8708 92.4627 15.5172 92.1204 15.0898C91.4204 14.1555 91.1614 12.9255 91.1159 11.7712C91.0704 10.415 91.2419 8.99018 91.9454 7.80345V7.83591ZM76.2654 7.99101C75.5654 8.1353 75.1349 8.82425 74.9599 9.49156C74.738 10.5144 74.6964 11.5701 74.8374 12.6081C74.9354 13.3295 75.1664 14.1808 75.8384 14.5812C76.6224 14.9707 77.7214 14.7579 78.1764 13.9463C78.6314 13.1347 78.6664 12.1897 78.6874 11.2915C78.7084 10.3933 78.6209 9.37614 78.1029 8.58618C77.7144 7.97659 76.9129 7.82509 76.2654 7.98741V7.99101ZM76.3354 6.18747C76.9105 5.99417 77.5254 5.96416 78.1155 6.10065C78.7053 6.23711 79.2488 6.53502 79.6884 6.963C80.6544 7.92248 81.0079 9.34367 81.0884 10.6819C81.1724 12.1824 81.0079 13.7876 80.1959 15.0753C79.855 15.6054 79.3839 16.033 78.8306 16.3149C78.2776 16.5968 77.6619 16.7229 77.0459 16.6805C76.5853 16.6462 76.1384 16.5024 75.7408 16.2601C75.3428 16.0179 75.0051 15.684 74.7534 15.2845C74.7534 16.6661 74.7534 18.0476 74.7534 19.4291H72.4119C72.4119 15.0284 72.4119 10.6266 72.4119 6.22354C73.1364 6.22354 73.8609 6.22354 74.5854 6.22354C74.6169 6.66 74.6589 7.09285 74.7009 7.52931C75.0947 6.9152 75.6669 6.44545 76.3354 6.18747ZM65.6254 12.0742C64.9254 12.453 64.8659 13.463 65.1634 14.1411C65.4609 14.8192 66.3149 14.9455 66.9589 14.8084C67.4381 14.7215 67.8693 14.4557 68.1699 14.0617C68.1699 13.2682 68.1699 12.4746 68.1699 11.6811C67.3194 11.7207 66.4199 11.645 65.6289 12.0742H65.6254ZM65.2579 6.23076C66.5109 5.98908 67.8724 5.9458 69.0624 6.48325C69.9689 6.90889 70.4379 7.92609 70.4904 8.92164C70.5744 11.4466 70.3994 13.9716 70.6304 16.4965H68.3169C68.2504 16.2152 68.1874 15.9302 68.1349 15.6489C67.6208 16.191 66.9383 16.5304 66.2064 16.6083C65.2089 16.7274 64.0784 16.5434 63.3749 15.7462C62.6714 14.9491 62.4649 13.7587 62.6434 12.7091C62.7407 12.2619 62.9416 11.8457 63.2293 11.4963C63.5174 11.1469 63.8831 10.8749 64.2954 10.7035C65.5029 10.1336 66.8609 10.0831 68.1699 10.0939C68.1699 9.50238 68.2399 8.78457 67.7674 8.34812C67.2214 7.9333 66.4864 7.98741 65.8494 8.06316C64.9384 8.1814 64.0648 8.51065 63.2944 9.02625C63.2944 8.36254 63.2944 7.70245 63.2944 7.03874C63.8894 6.6481 64.5509 6.37757 65.2439 6.24158L65.2579 6.23076ZM49.2804 2.30265H52.4304C53.3383 5.78229 54.2539 9.25952 55.1779 12.7343C56.1159 9.26071 57.0329 5.77626 57.9779 2.30265C59.0279 2.30265 60.0429 2.30265 61.0789 2.30265C61.0789 7.03034 61.0789 11.758 61.0789 16.4857C60.3264 16.4857 59.5774 16.4857 58.8249 16.4857C58.8249 12.9435 58.8249 9.40019 58.8249 5.85562C57.8484 9.38335 56.9559 12.9399 56.0249 16.4821H54.0474C53.1199 12.9327 52.1644 9.39417 51.2684 5.84119C51.1984 9.38696 51.2684 12.9363 51.2369 16.4821H49.2734C49.2734 11.7568 49.2734 7.02792 49.2734 2.29904L49.2804 2.30265Z" fill="black"/>
<path d="M32.7009 10.0218C34.4754 7.52935 36.2008 4.99718 37.9508 2.49023L40.3343 3.47136C40.6843 3.64813 41.1323 3.72027 41.4193 3.98359C41.1183 5.53103 40.7193 7.06404 40.4078 8.60787C41.4893 7.68806 42.5568 6.74661 43.6383 5.8232C44.1643 7.0728 44.4041 8.43051 44.3383 9.79099C42.5533 11.4358 40.7998 13.1203 38.9973 14.7435C38.0827 14.2433 37.1563 13.7624 36.2183 13.3007C36.5707 11.8579 36.9207 10.4222 37.2683 8.99383C35.6163 11.4935 34.0204 14.0437 32.3684 16.5362C31.2029 16.0493 30.0339 15.5732 28.8684 15.0934C29.2184 13.6506 29.5684 12.2077 29.9184 10.7649C29.0691 11.9312 28.2221 13.0999 27.3774 14.271C26.7057 13.157 26.2792 11.9048 26.1279 10.6026C27.5699 8.83151 28.9909 7.03879 30.4154 5.25689C30.5029 5.17392 30.5939 4.96111 30.7409 5.07653C31.6404 5.5202 32.5294 5.98913 33.4219 6.45805C33.1804 7.64117 32.9564 8.83151 32.7219 10.0182L32.7009 10.0218Z" fill="black"/>
<path d="M32.3363 16.5542C33.9918 14.0545 35.5878 11.5043 37.2363 9.01181C36.8908 10.4546 36.5408 11.8903 36.1863 13.3187C37.1197 13.7756 38.0458 14.2565 38.9653 14.7615C40.7713 13.1383 42.5213 11.4538 44.3063 9.80898C44.2258 11.8331 43.5142 13.7766 42.2773 15.3511C41.0404 16.9256 39.344 18.0473 37.4396 18.5498C35.5353 19.0523 33.5245 18.9088 31.7056 18.1406C29.8866 17.3725 28.3564 16.0206 27.3418 14.2854C28.1865 13.1143 29.0335 11.9456 29.8828 10.7793C29.5328 12.2221 29.1828 13.6649 28.8328 15.1078C29.9983 15.5911 31.1673 16.0673 32.3328 16.5506L32.3363 16.5542Z" fill="#FED104"/>
<path d="M31.0448 1.02213C32.1695 0.433514 33.4001 0.0908583 34.6595 0.0156685C35.9188 -0.059521 37.1795 0.134378 38.3628 0.5852C39.5458 1.03602 40.6259 1.73403 41.5349 2.63541C42.4438 3.53679 43.162 4.62207 43.6447 5.82316C42.5632 6.74657 41.4957 7.68802 40.4142 8.60783C40.7397 7.06399 41.1142 5.53459 41.4257 3.98354C41.1387 3.71662 40.6942 3.64448 40.3407 3.47134L37.9572 2.49021C36.2072 4.99353 34.4783 7.54013 32.7073 10.0218C32.9383 8.83507 33.1623 7.64473 33.4073 6.46161C32.5183 5.99269 31.6258 5.52377 30.7263 5.0801C30.5793 4.96467 30.4883 5.17749 30.4008 5.26045C28.9728 7.04235 27.5553 8.83507 26.1133 10.6062C25.9149 8.92337 26.1503 7.21639 26.7958 5.65723C27.6473 3.64725 29.1541 2.00751 31.0553 1.02213H31.0448Z" fill="#FED104"/>
<path d="M13.3002 18.7582C18.326 18.7582 22.4002 14.5593 22.4002 9.37975C22.4002 4.2002 18.326 0.00134277 13.3002 0.00134277C8.2744 0.00134277 4.2002 4.2002 4.2002 9.37975C4.2002 14.5593 8.2744 18.7582 13.3002 18.7582Z" fill="#FC3F1D"/>
<path d="M16.8 15.1511H14.6828V5.17084H13.7396C12.0108 5.17084 11.1052 5.99474 11.1052 7.22457C11.1052 8.61983 11.7298 9.26633 13.022 10.0902L14.0868 10.7742L11.0265 15.1494H8.75L11.5043 11.2433C9.92047 10.1653 9.0292 9.11281 9.0292 7.33715C9.0292 5.11796 10.6524 3.6084 13.7253 3.6084H16.7857V15.1477H16.8V15.1511Z" fill="white"/>
</g>
<defs>
<clipPath id="clip0_107_580">
<rect width="112" height="19.4783" fill="white" transform="translate(0 -0.00012207)"/>
</clipPath>
</defs>
</svg>
